<svg width="19" height="19" viewBox="0 0 19 19" fill="none" xmlns="http://www.w3.org/2000/svg">
<path id="Vector" d="M9.74488 16.7378C11.7467 16.7378 13.5575 15.9283 14.8629 14.6218C16.1729 13.3127 16.9824 11.5009 16.9824 9.50025C16.9824 7.7739 16.3809 6.19048 15.3775 4.9505L5.26636 15.19C6.49809 16.1601 8.05438 16.7378 9.74488 16.7378ZM14.222 3.80911C12.9917 2.84038 11.4366 2.26249 9.74488 2.26249C7.74397 2.26249 5.93223 3.07201 4.62691 4.37851C3.31687 5.6876 2.50712 7.49816 2.50712 9.50025C2.50712 11.224 3.10883 12.8086 4.11082 14.0486L14.222 3.80911ZM3.54732 15.8367L3.51642 15.8082L3.48788 15.7785L3.4808 15.77L3.47373 15.7629L3.47255 15.7617C1.86767 14.1521 0.878418 11.9385 0.878418 9.50025C0.878418 7.05708 1.87239 4.84105 3.47491 3.23617C5.0845 1.62516 7.30289 0.633789 9.74488 0.633789C12.1534 0.633789 14.3409 1.6004 15.9398 3.16353L15.9554 3.17791L15.9707 3.19207L15.9851 3.20645L15.9993 3.22179L16.0087 3.23028C17.6197 4.83987 18.6111 7.05708 18.6111 9.50025C18.6111 11.942 17.6174 14.1592 16.0137 15.7653C14.405 17.3751 12.1878 18.3665 9.74488 18.3665C7.34346 18.3665 5.16187 17.406 3.56289 15.8497L3.55699 15.845L3.54732 15.8367Z" fill="#B3B3B3"/>
</svg>
