<svg width="22" height="22" viewBox="0 0 22 22" fill="none" xmlns="http://www.w3.org/2000/svg">
<path id="Vector" fill-rule="evenodd" clip-rule="evenodd" d="M8.8864 8.8864C8.28871 9.47985 7.99224 10.1862 7.99224 11C7.99224 11.8142 8.28871 12.5201 8.8864 13.1136C9.47986 13.711 10.1861 14.0082 11.0003 14.0082C11.8145 14.0082 12.5205 13.711 13.1136 13.1136C13.7116 12.5201 14.0082 11.8142 14.0082 11C14.0082 10.1862 13.7116 9.47985 13.1136 8.8864C12.5205 8.2887 11.8145 7.99179 11.0003 7.99179C10.1861 7.99179 9.47986 8.2887 8.8864 8.8864ZM14.4892 14.4892C13.5258 15.4525 12.3614 15.9328 11.0003 15.9328C9.63848 15.9328 8.47448 15.4525 7.51112 14.4892C6.54741 13.5255 6.06762 12.3615 6.06762 11C6.06762 9.63853 6.54741 8.47453 7.51112 7.51083C8.47448 6.54746 9.63848 6.0672 11.0003 6.0672C12.3614 6.0672 13.5258 6.54746 14.4892 7.51083C15.4525 8.47453 15.9328 9.63853 15.9328 11C15.9328 12.3615 15.4525 13.5255 14.4892 14.4892ZM18.9993 8.0729L21.3606 8.91566C21.6815 9.03026 21.8862 9.32612 21.9003 9.64665L21.9172 9.77817C21.9722 10.2094 22 10.6128 22 11C22 11.3875 21.9722 11.7909 21.9172 12.2218L21.8918 12.42C21.8519 12.7335 21.6383 12.9824 21.3601 13.0819L21.3606 13.0843L18.9993 13.9271C18.9605 14.0357 18.9192 14.145 18.8755 14.2543C18.8293 14.3704 18.7828 14.4818 18.7362 14.5883L19.8225 16.8627C19.9625 17.1561 19.9112 17.4918 19.7176 17.7273L19.5864 17.8874C19.3194 18.2132 19.0504 18.5115 18.781 18.7809C18.5116 19.0503 18.2133 19.319 17.8874 19.5863L17.7277 19.7175C17.4685 19.9305 17.1169 19.9562 16.8373 19.8102L14.5883 18.7358C14.4818 18.7827 14.3701 18.8292 14.2541 18.8754C14.1448 18.9192 14.0357 18.9604 13.9275 18.9992L13.0843 21.3607C12.9701 21.6819 12.6739 21.8865 12.353 21.9002L12.2218 21.9171C11.7909 21.9722 11.3875 22 11 22C10.6128 22 10.2095 21.9722 9.77862 21.9171L9.58039 21.8917C9.2669 21.8519 9.01799 21.6382 8.9182 21.3596L8.91566 21.3607L8.073 18.9992C7.96439 18.9604 7.85574 18.9192 7.74608 18.8754C7.63007 18.8292 7.51819 18.7827 7.4117 18.7358L5.13763 19.8226C4.84425 19.9626 4.50863 19.9107 4.27273 19.7171L4.11435 19.5874L4.1127 19.5895C3.79922 19.3321 3.50082 19.0623 3.21944 18.7813C2.95038 18.5119 2.68103 18.2132 2.41409 17.8874L2.28288 17.7277C2.06989 17.4685 2.04409 17.1169 2.18973 16.8373L3.26422 14.5883C3.21767 14.4818 3.17114 14.3704 3.12494 14.2543C3.08122 14.145 3.03999 14.0357 3.00119 13.9271L0.639648 13.0843C0.31876 12.9697 0.114271 12.6746 0.100164 12.3537L0.083296 12.2218C0.0279333 11.7913 0 11.3875 0 11C0 10.6125 0.0279333 10.2091 0.083296 9.77817L0.108673 9.58035C0.14852 9.26687 0.362125 9.01793 0.640693 8.91814L0.639648 8.91566L3.00119 8.0729C3.03999 7.96429 3.08127 7.85534 3.12465 7.74602C3.17119 7.62966 3.21762 7.51858 3.26452 7.41209L2.17779 5.13768C2.03744 4.84431 2.08929 4.50861 2.28288 4.27271L2.41409 4.11262C2.68138 3.7868 2.95043 3.48848 3.22018 3.21872C3.50122 2.93733 3.79922 2.66757 4.1127 2.41052L4.27273 2.27934C4.5439 2.05789 4.9152 2.03991 5.20048 2.20776L7.41215 3.26421C7.519 3.21731 7.63032 3.17076 7.74668 3.12457C7.856 3.08085 7.96474 3.03994 8.073 3.00116L8.91566 0.639303C9.03026 0.31807 9.32607 0.113543 9.64696 0.0994365L9.77862 0.0828669C10.2099 0.0278586 10.6128 0 11 0C11.3875 0 11.7906 0.0278586 12.2218 0.0828669L12.4201 0.108253C12.7335 0.147746 12.9825 0.361435 13.082 0.640012L13.0843 0.639303L13.9275 3.00116C14.0357 3.03959 14.1447 3.0812 14.2544 3.12457C14.369 3.17042 14.4793 3.21661 14.5847 3.26245L16.8627 2.17462C17.1624 2.03181 17.5055 2.08858 17.7425 2.29169L17.8874 2.41052C18.2013 2.66757 18.4995 2.93769 18.7806 3.21872L18.824 3.26562C19.0878 3.5322 19.3423 3.815 19.5864 4.11262L19.7176 4.27271C19.9306 4.53188 19.9563 4.88345 19.8103 5.16308L18.7358 7.41173C18.7827 7.51822 18.8293 7.62966 18.8755 7.74602C18.9192 7.85534 18.9605 7.96429 18.9993 8.0729ZM20.3406 10.2792L18.0817 9.47315L18.0824 9.47139C17.8493 9.38782 17.6575 9.19988 17.5792 8.94528C17.515 8.73582 17.4446 8.53483 17.3684 8.34407C17.2993 8.17058 17.2128 7.98016 17.1099 7.77317L17.1124 7.77212C17.0052 7.55631 16.995 7.29537 17.1067 7.06088L18.1352 4.90848C17.9875 4.73887 17.8331 4.57244 17.6723 4.40988L17.6296 4.37003C17.4551 4.19548 17.276 4.02799 17.0923 3.86825L14.9391 4.89649C14.7212 4.99981 14.4596 5.00616 14.2269 4.89014C14.0199 4.78718 13.8299 4.70114 13.6564 4.63203C13.4822 4.56256 13.2994 4.49768 13.1097 4.43809C12.8488 4.37744 12.6239 4.18949 12.5272 3.91867L11.7207 1.65944C11.4855 1.63863 11.2468 1.62805 11 1.62805C10.7535 1.62805 10.5145 1.63863 10.2793 1.65944L9.4732 3.91867L9.47141 3.91797C9.38819 4.1507 9.19996 4.34288 8.94536 4.42116C8.73591 4.48534 8.53515 4.55586 8.34438 4.63167C8.17089 4.70079 7.98059 4.78683 7.77325 4.89014L7.7722 4.88768C7.5564 4.99487 7.2954 5.00545 7.0609 4.89332L4.91058 3.86614C4.72616 4.02657 4.546 4.19478 4.3711 4.36967C4.19021 4.55057 4.02136 4.73041 3.8655 4.90883L4.86476 7.00094C4.99804 7.22943 5.01717 7.51893 4.89058 7.77317C4.78761 7.98016 4.70115 8.17058 4.63203 8.34407C4.56257 8.51826 4.49772 8.70092 4.43813 8.89062C4.37747 9.15121 4.18946 9.37653 3.91864 9.47315L1.6598 10.2792C1.63865 10.5144 1.62815 10.7535 1.62815 11C1.62815 11.2465 1.63865 11.4856 1.6598 11.7208L3.91864 12.5268L3.91805 12.5286C4.15113 12.6122 4.34283 12.8001 4.42111 13.0547C4.48564 13.2645 4.55587 13.4655 4.63203 13.6566C4.70115 13.8298 4.78726 14.0199 4.89058 14.2268L4.88804 14.2279C4.99524 14.4437 5.0055 14.7046 4.89372 14.9391L3.8655 17.0915C4.02136 17.2696 4.19026 17.4494 4.3708 17.63C4.54606 17.8052 4.72581 17.9734 4.91058 18.1339L7.0009 17.1353C7.22974 17.0023 7.51901 16.9833 7.77325 17.1099C7.98024 17.2128 8.17058 17.2992 8.34408 17.3683C8.51827 17.4378 8.70087 17.5027 8.89058 17.5623C9.15117 17.6229 9.37659 17.8109 9.4732 18.0817L10.2793 20.3406C10.5145 20.3614 10.7535 20.372 11 20.372C11.2465 20.372 11.4855 20.3614 11.7207 20.3406L12.5272 18.0817L12.529 18.082C12.6123 17.8493 12.8005 17.6575 13.0551 17.5792C13.2645 17.515 13.4651 17.4445 13.6559 17.3683C13.8298 17.2992 14.0203 17.2128 14.2269 17.1099L14.2282 17.1123C14.4437 17.0051 14.7049 16.9946 14.9391 17.1067L17.0915 18.1349C17.2696 17.9787 17.4494 17.8105 17.6299 17.63C17.8105 17.4494 17.9787 17.2696 18.1349 17.0915L17.1352 14.9991C17.0023 14.7702 16.9833 14.4811 17.1099 14.2268C17.2132 14.0199 17.2993 13.8298 17.3684 13.6566C17.4379 13.4817 17.5027 13.2987 17.5626 13.108C17.6236 12.8481 17.8112 12.6235 18.0817 12.5268L20.3406 11.7208C20.3614 11.4856 20.372 11.2465 20.372 11C20.372 10.7535 20.3614 10.5144 20.3406 10.2792Z" fill="#666666"/>
</svg>
