<svg width="26" height="20" viewBox="0 0 26 20" fill="none" xmlns="http://www.w3.org/2000/svg">
<g id="4-2 +">
<path id="Vector" d="M13 18.3473C8.86555 18.4481 4.93277 17.9439 1 17.137C1 16.431 1 15.725 1 15.1199C1.5042 14.0105 2.31092 12.9011 2.51261 11.7917C2.81513 9.67368 3.11765 8.2617 4.22689 6.54715C5.7395 4.22746 8.15966 3.11805 10.2773 2.61377" stroke="#808080" stroke-width="1.65" stroke-linecap="round" stroke-linejoin="round"/>
<path id="Vector_2" d="M10.3784 5.3368C10.3784 4.02568 10.3784 3.82396 10.3784 2.61369C10.3784 1.80685 11.1851 1 11.9919 1C12.6977 1 13.3028 1 14.0087 1C14.8154 1 15.6221 1.80685 15.6221 2.61369V5.43766" stroke="#808080" stroke-width="1.65" stroke-linecap="round" stroke-linejoin="round"/>
<path id="Vector_3" d="M19.1514 14.7165C21.0673 14.4139 22.3783 14.2122 24.2942 13.9097" stroke="#808080" stroke-width="1.65" stroke-linecap="round" stroke-linejoin="round"/>
<path id="Vector_4" d="M13.0002 15.4224C15.1722 15.4224 16.9329 13.6614 16.9329 11.489C16.9329 9.3167 15.1722 7.55566 13.0002 7.55566C10.8281 7.55566 9.06738 9.3167 9.06738 11.489C9.06738 13.6614 10.8281 15.4224 13.0002 15.4224Z" stroke="#808080" stroke-width="1.65" stroke-linecap="round" stroke-linejoin="round"/>
<path id="Vector_5" d="M13 18.3473C17.0336 18.4481 21.0672 17.9439 25 17.137C25 16.431 25 15.725 25 15.1199C24.4958 14.0105 23.6891 12.9011 23.4874 11.7917C23.1849 9.67368 22.8824 8.2617 21.7731 6.54715C20.2605 4.22746 17.8403 3.11805 15.7227 2.61377" stroke="#808080" stroke-width="1.65" stroke-linecap="round" stroke-linejoin="round"/>
<path id="Vector_6" d="M6.9495 14.7165C4.93269 14.4139 3.62177 14.2122 1.80664 13.9097" stroke="#808080" stroke-width="1.65" stroke-linecap="round" stroke-linejoin="round"/>
</g>
</svg>
