<svg width="22" height="19" viewBox="0 0 22 19" fill="none" xmlns="http://www.w3.org/2000/svg">
<g id="1">
<path id="Vector" d="M7.54507 13.3102L7.15426 14.3849L3.53929 17.9998L3.05078 17.5113L6.76345 13.7987L7.54507 13.3102ZM7.54507 13.3102L10.3552 10.5" stroke="#4D4D4D" stroke-width="1.65" stroke-linecap="round" stroke-linejoin="round"/>
<path id="Vector_2" d="M8.13325 9.10957L5.10449 6.08081" stroke="#4D4D4D" stroke-width="1.65" stroke-linecap="round" stroke-linejoin="round"/>
<path id="Vector_3" d="M14.0001 14.9999L11.748 12.8218" stroke="#4D4D4D" stroke-width="1.65" stroke-linecap="round" stroke-linejoin="round"/>
<path id="Vector_4" d="M5.00578 2.17261C5.59199 2.66112 5.9828 3.34503 5.9828 4.12665C5.9828 5.59217 4.71267 6.8623 3.24714 6.8623C2.36783 6.8623 1.48851 6.37379 1 5.59217" stroke="#4D4D4D" stroke-width="1.65" stroke-linecap="round" stroke-linejoin="round"/>
<path id="Vector_5" d="M15.2655 17.9999C16.2367 17.9999 17.0241 17.2126 17.0241 16.2413C17.0241 15.27 16.2367 14.4827 15.2655 14.4827C14.2942 14.4827 13.5068 15.27 13.5068 16.2413C13.5068 17.2126 14.2942 17.9999 15.2655 17.9999Z" stroke="#4D4D4D" stroke-width="1.65" stroke-linecap="round" stroke-linejoin="round"/>
<g id="Group 40">
<path id="Vector_6" d="M15.5701 1C13.0214 1 11 3.02138 11 5.57007C11 8.11877 13.0214 10.228 15.5701 10.228C18.1188 10.228 20.228 8.11877 20.228 5.57007C20.228 4.7791 19.9644 3.98812 19.6128 3.28504" stroke="#4D4D4D" stroke-width="1.65" stroke-linecap="round" stroke-linejoin="round"/>
<path id="Vector_7" d="M15.3936 5.92153V3.5" stroke="#4D4D4D" stroke-width="1.65" stroke-linecap="round" stroke-linejoin="round"/>
<path id="Vector_8" d="M15.3936 5.92188L16.7997 6.71285" stroke="#4D4D4D" stroke-width="1.65" stroke-linecap="round" stroke-linejoin="round"/>
<path id="Vector_9" fill-rule="evenodd" clip-rule="evenodd" d="M17.6526 0L17.3799 4.5L21.7435 1.90909L17.6526 0Z" fill="#4D4D4D"/>
</g>
</g>
</svg>
