<svg width="100" height="101" viewBox="0 0 100 101" fill="none" xmlns="http://www.w3.org/2000/svg">
<path id="Ico" fill-rule="evenodd" clip-rule="evenodd" d="M13.719 0H86.2948C93.8384 0 100.01 6.17453 100.01 13.7151V86.294C100.01 93.8345 93.8384 100.012 86.2948 100.012H13.719C6.17538 100.012 0.00390625 93.8345 0.00390625 86.294V13.7151C0.00390625 6.17453 6.17538 0 13.719 0ZM49.516 95.1091H44.4849L44.3812 91.7885L43.5458 95.1091H42.6615C40.335 95.1091 38.3287 94.2462 36.7218 92.56C34.6636 90.4012 32.8615 88.5107 31.2028 86.7727L30.1966 82.1471L29.9831 85.486C28.3397 83.7571 26.8273 82.1502 25.3149 80.5189L25.2082 77.0368L24.5465 79.6773C24.0464 79.1346 23.5525 78.5888 23.0494 78.0338C21.7291 76.5672 21.0186 74.8993 20.9485 72.9204L20.4637 59.4005C20.4485 59.001 20.7137 58.6534 21.0979 58.565C21.4882 58.4766 21.9181 58.6565 22.0371 59.0407L25.3515 69.8743C25.7509 71.1915 26.626 72.1124 27.6902 72.9844L33.5385 77.7686C33.9897 78.1284 34.6483 78.0674 35.0173 77.6222L40.2984 71.2159C40.3929 71.1062 40.4936 71.033 40.6216 70.9781L42.9146 70.0329C43.2896 69.8804 43.5275 69.545 43.561 69.1486C43.5824 68.8315 43.6952 68.554 43.9391 68.3406L44.9087 67.4746C44.8782 68.8193 45.7533 69.6731 46.848 70.1945C50.1655 71.7739 49.8514 71.7739 53.1658 70.1945C54.2605 69.6731 55.1325 68.8193 55.1051 67.4746L56.0747 68.3406C56.3156 68.551 56.4254 68.8315 56.4498 69.1486C56.4833 69.545 56.7242 69.8804 57.0992 70.0329L59.3922 70.9781C59.5203 71.033 59.6209 71.1092 59.7123 71.2159L64.9965 77.6222C65.3624 78.0674 66.0241 78.1284 66.4723 77.7686L72.3236 72.9844C73.3878 72.1124 74.2598 71.1946 74.6654 69.8743L77.9768 59.0407C78.0957 58.6565 78.5226 58.4766 78.9159 58.565C79.3031 58.6534 79.5623 59.0041 79.5471 59.4005L79.0653 72.9204C78.9952 74.8963 78.2847 76.5672 76.9583 78.0338C76.3455 78.7138 75.7356 79.3816 75.1289 80.0432L74.3788 77.0368L74.2507 80.9976C72.7627 82.6015 71.2595 84.1931 69.6221 85.9159L69.3904 82.1471L68.2469 87.3612C66.7467 88.9376 65.1185 90.639 63.2921 92.56C61.6852 94.2462 59.6788 95.1091 57.3523 95.1091H56.2546L55.5655 91.9593L55.3704 95.1091H50.7052L50.013 90.8494L49.516 95.1091ZM50.0039 76.8172C49.6227 76.8172 49.2324 76.8965 48.8543 77.0581L43.9787 79.1437C43.1128 79.5188 42.5212 80.214 42.2926 81.1287L41.7498 83.2875C41.6583 83.6656 41.7407 84.0376 41.9937 84.3334C42.2468 84.6291 42.5975 84.7755 42.9847 84.742L46.0034 84.4858C46.1406 84.4767 46.2565 84.4127 46.3357 84.309C46.4211 84.1992 46.4516 84.0772 46.4272 83.94L46.3083 83.257C46.2687 83.01 46.3327 82.7844 46.4912 82.5893C46.6528 82.4002 46.8663 82.2996 47.1224 82.2996H50.0039H52.8945C53.1475 82.2996 53.361 82.4002 53.5226 82.5893C53.6842 82.7844 53.7452 83.0131 53.7055 83.257L53.5866 83.94C53.5622 84.0742 53.5927 84.1992 53.6781 84.309C53.7574 84.4127 53.8732 84.4767 54.0074 84.4858L57.0261 84.742C57.4133 84.7725 57.767 84.6291 58.0201 84.3334C58.2732 84.0376 58.3555 83.6717 58.264 83.2875L57.7213 81.1287C57.4926 80.2109 56.901 79.5188 56.0351 79.1437L51.1595 77.0581C50.7814 76.8965 50.3881 76.8172 50.0039 76.8172ZM46.6345 5.42139L34.0446 8.37906C32.6786 8.69922 31.5535 9.24197 30.5838 10.2543L25.1167 15.9684C19.8783 21.4111 16.4144 28.5675 15.6338 36.5166C14.9112 36.8002 14.2831 37.2667 13.8105 37.8857C13.3409 38.5016 13.0421 39.2426 12.975 40.0079C12.9018 40.8799 13.1092 41.7733 13.6946 42.5814C15.9906 45.7555 22.7445 50.2652 26.4431 51.677C27.1993 51.9606 27.2816 52.5643 27.306 52.9058L27.4188 54.3115C27.4554 54.8054 27.6749 55.217 28.053 55.5433L29.416 56.7294C29.6569 56.9368 29.9069 57.0709 30.2179 57.1411L42.8018 59.9463C43.3506 60.0743 43.8812 59.9707 44.3355 59.6383L45.6741 58.6565C46.0644 58.3699 46.2687 57.9887 46.3998 57.5253C47.3084 54.348 52.7054 54.348 53.6141 57.5253C53.7452 57.9887 53.9495 58.3699 54.3428 58.6565L55.6722 59.6383C56.1326 59.9707 56.6602 60.0743 57.212 59.9463L69.7959 57.1411C70.1069 57.0709 70.3539 56.9398 70.5978 56.7294L71.9608 55.5433C72.3389 55.217 72.5615 54.8085 72.595 54.3115L72.6804 53.0247C72.7231 52.4088 72.9396 51.9179 73.5677 51.677C77.1779 50.2774 83.8921 45.9354 86.3192 42.5814C86.9047 41.7733 87.112 40.8799 87.0388 40.0079C86.9717 39.2426 86.6699 38.5016 86.2003 37.8857C85.7277 37.2667 85.0996 36.8002 84.3769 36.5166C83.5994 28.5675 80.1325 21.4111 74.8941 15.9684L69.43 10.2543C68.4634 9.24197 67.3352 8.67483 65.9692 8.35467L53.1079 5.34211C50.7905 4.88779 49.4398 4.76277 46.6345 5.42139ZM50.0039 47.9387C57.0748 47.9387 62.8042 42.2094 62.8042 35.1414C62.8042 33.7083 62.5694 32.3332 62.1364 31.0495C61.4565 29.0279 61.1546 27.1984 61.1546 25.064V22.1216C61.1546 21.0696 61.5357 18.4382 62.2919 17.7064L64.6733 15.4013C65.3228 14.7701 66.3016 14.6908 67.0486 15.2061C68.3475 16.1148 69.5977 17.1332 70.7838 18.2675C75.571 22.8717 78.8336 29.0431 79.7483 35.9586C79.9221 37.3002 80.1417 38.4376 80.4679 39.7457C80.5746 40.1939 80.5716 40.6482 80.4557 41.1269C80.2636 41.9136 79.7453 42.4198 79.1324 42.9412C66.4723 53.7596 33.5385 53.7504 20.8814 42.9412C20.2655 42.4198 19.7471 41.9136 19.5551 41.1269C19.4422 40.6482 19.4392 40.1939 19.5459 39.7457C19.8752 38.4376 20.0917 37.3002 20.2655 35.9586C21.1772 29.0431 24.4428 22.8717 29.23 18.2675C30.468 17.0844 31.773 16.0233 33.136 15.0902C33.88 14.578 34.8587 14.6603 35.5021 15.2884C38.8409 18.5236 39.1367 19.6365 39.1367 24.2743C39.1367 26.5855 38.7891 28.5614 37.9902 30.7293C37.4871 32.1045 37.2096 33.5894 37.2096 35.1414C37.2096 42.2094 42.939 47.9387 50.0039 47.9387ZM60.5692 13.2333L59.0049 14.7945C57.4072 16.3922 56.6022 20.0573 56.6022 22.3167V24.1737C55.6844 23.6187 54.6782 23.1735 53.6262 22.8625C52.8213 22.6277 52.2816 21.9112 52.2816 21.0666V12.3155C52.2816 11.7209 52.5286 11.2117 52.9951 10.8458C53.4646 10.4769 54.0226 10.358 54.5959 10.4952L60.185 11.852C60.4807 11.9283 60.6972 12.1326 60.7735 12.4314C60.8619 12.7211 60.7826 13.0138 60.5692 13.2333ZM47.7292 12.3094V21.0666C47.7292 21.9112 47.1986 22.6277 46.3876 22.8625C45.4362 23.143 44.5306 23.5303 43.6891 24.009V22.3259C43.6891 20.0634 42.8749 16.3922 41.2711 14.7945L39.6307 13.1571C39.4172 12.9467 39.341 12.6509 39.4233 12.3582C39.5056 12.0655 39.7252 11.852 40.0179 11.7819L45.421 10.4921C46.0003 10.3488 46.5522 10.4708 47.0157 10.8397C47.4853 11.2026 47.7292 11.7148 47.7292 12.3094ZM50.0039 26.9514C54.5257 26.9514 58.1969 30.6165 58.1969 35.1414C58.1969 39.6603 54.5257 43.3315 50.0039 43.3315C45.485 43.3315 41.8169 39.6603 41.8169 35.1414C41.8169 30.6165 45.485 26.9514 50.0039 26.9514ZM13.719 4.96097H28.7391C29.0806 4.96097 29.3764 5.15611 29.5075 5.47017C29.6416 5.78729 29.5715 6.13184 29.3337 6.37882L27.4371 8.30283C26.7206 9.02243 25.8515 9.39138 24.8331 9.39138H13.719C12.5298 9.39138 11.4504 9.87619 10.6637 10.6629C9.8801 11.4465 9.39224 12.5259 9.39224 13.7151C9.39224 37.907 9.39224 62.0959 9.39224 86.297C9.39224 87.4831 9.8801 88.5595 10.6637 89.3462C11.4504 90.1329 12.5298 90.6207 13.719 90.6207H28.2604C29.294 90.6207 30.1844 91.0019 30.9009 91.7459C31.5047 92.3831 32.1084 93.0113 32.7091 93.6424C32.9439 93.8894 33.0079 94.2279 32.8737 94.545C32.7396 94.859 32.4438 95.0481 32.1054 95.0481H13.719C11.3071 95.0481 9.11477 94.0663 7.52921 92.4777C5.94365 90.8951 4.95877 88.7059 4.95877 86.297V13.7151C4.95877 11.3032 5.94365 9.11391 7.52921 7.5314C9.11477 5.94279 11.3071 4.96097 13.719 4.96097ZM86.2948 4.96097C88.7067 4.96097 90.899 5.94279 92.4816 7.5314C94.0702 9.11391 95.052 11.3032 95.052 13.7151V86.297C95.052 88.7059 94.0702 90.8951 92.4816 92.4777C90.899 94.0663 88.7067 95.0481 86.2948 95.0481H67.9085C67.5639 95.0481 67.2712 94.859 67.137 94.545C67.0029 94.2279 67.0699 93.8894 67.3017 93.6424C67.9054 93.0113 68.5061 92.3831 69.1098 91.7489C69.8203 91.0019 70.7167 90.6207 71.7504 90.6207H86.2948C87.484 90.6207 88.5634 90.1329 89.3501 89.3462C90.1337 88.5595 90.6216 87.4831 90.6216 86.297C90.6216 62.0959 90.6216 37.907 90.6216 13.7151C90.6216 12.5259 90.1337 11.4465 89.3501 10.6629C88.5634 9.87619 87.484 9.39138 86.2948 9.39138H75.1746C74.1623 9.39138 73.2902 9.02243 72.5737 8.30283L70.6801 6.37882C70.4393 6.13184 70.3722 5.78729 70.5002 5.47017C70.6375 5.15611 70.9332 4.96097 71.2747 4.96097H86.2948Z" fill="#808080"/>
</svg>
