<svg width="91" height="31" viewBox="0 0 91 31" fill="none" xmlns="http://www.w3.org/2000/svg">
<g id="2">
<path id="Text" fill-rule="evenodd" clip-rule="evenodd" d="M34.8667 22.2788V3.09918H40.9174C41.0693 3.09918 41.2333 3.10712 41.4083 3.12223C41.5837 3.13735 41.77 3.16041 41.9673 3.19064C42.4095 3.29723 42.8158 3.55272 43.1892 3.956C43.5626 4.3589 43.7482 5.0479 43.7482 6.02227V19.3787C43.7482 19.5311 43.7406 19.7178 43.7255 19.9377C43.7104 20.1588 43.6647 20.383 43.5895 20.6112C43.467 21.0376 43.2123 21.4216 42.8234 21.7644C42.436 22.1072 41.7999 22.2788 40.9174 22.2788H34.8667ZM38.7022 20.1777H39.0676C39.2816 20.1777 39.4751 20.1014 39.6505 19.9491C39.8251 19.7968 39.9128 19.5311 39.9128 19.1505V6.20482C39.9128 5.86957 39.8406 5.62957 39.6958 5.48482C39.5511 5.34006 39.395 5.25313 39.2279 5.2229C39.1977 5.20778 39.1667 5.19984 39.1372 5.19984C39.1054 5.19984 39.0752 5.19984 39.0446 5.19984H38.7022V20.1777ZM45.9861 22.2788V3.09918H50.5525L53.6116 15.7485L56.6712 3.09918H61.2383V22.2788H57.4021V11.3873L55.21 22.2788H52.0137L49.8215 11.3873V22.2788H45.9861ZM63.7948 22.2788V3.09918H68.3613L71.4212 15.7485L74.4807 3.09918H79.0471V22.2788H75.2113V11.3873L73.0195 22.2788H69.8228L67.6311 11.3873V22.2788H63.7948ZM81.6043 15.7712H85.4402V19.9721C85.4402 20.1241 85.4817 20.2382 85.5657 20.3149C85.6496 20.3909 85.7365 20.4438 85.828 20.4748C85.8582 20.4748 85.8926 20.4786 85.9308 20.4861C85.9689 20.4929 86.003 20.4967 86.0339 20.4967C86.2161 20.4967 86.3609 20.4483 86.4675 20.3489C86.574 20.2499 86.6345 20.1471 86.65 20.0405C86.65 20.0254 86.65 20.0141 86.65 20.0065C86.65 19.999 86.65 19.9872 86.65 19.9721V16.2731C86.65 15.9084 86.5812 15.6457 86.4448 15.4855C86.308 15.3256 86.1553 15.1933 85.9875 15.086C85.9727 15.086 85.9576 15.0826 85.9421 15.075C85.9266 15.0674 85.9119 15.0557 85.8968 15.0406C85.8661 15.01 85.828 14.9798 85.7822 14.9488C85.7365 14.9185 85.6911 14.8879 85.645 14.8577L82.9971 12.6886C82.6925 12.4301 82.4566 12.2056 82.2892 12.0151C82.1218 11.825 82.008 11.6462 81.9471 11.4784C81.8708 11.311 81.8292 11.1401 81.8209 10.9651C81.8137 10.7905 81.8099 10.5879 81.8099 10.36C81.8099 10.3298 81.8099 10.2954 81.8099 10.2569C81.8099 10.2191 81.8099 10.185 81.8099 10.1541V6.04419C81.8099 6.01395 81.8099 5.98031 81.8099 5.94176C81.8099 5.90359 81.8099 5.86957 81.8099 5.83896C81.8099 5.67153 81.8099 5.49275 81.8099 5.30302C81.8099 5.11216 81.8247 4.91827 81.8553 4.72022C81.9316 4.23342 82.1524 3.78819 82.5175 3.38491C82.8826 2.98126 83.5527 2.77905 84.5267 2.77905H87.5631C88.6588 2.77905 89.4011 2.9926 89.7893 3.41931C90.1778 3.84488 90.4099 4.30938 90.4858 4.81168C90.5165 4.99423 90.5316 5.17301 90.5316 5.348C90.5316 5.52299 90.5316 5.6942 90.5316 5.86201C90.5316 5.87751 90.5316 5.90019 90.5316 5.93005C90.5316 5.96066 90.5316 5.9909 90.5316 6.02227V9.01263H86.6954V5.40507C86.6954 5.26863 86.6383 5.14617 86.5241 5.04034C86.4104 4.93338 86.2694 4.88009 86.1023 4.88009C85.9194 4.88009 85.7709 4.9296 85.6567 5.02825C85.5422 5.12765 85.478 5.23008 85.4632 5.33666C85.4632 5.3514 85.4632 5.36349 85.4632 5.37068C85.4632 5.37823 85.4632 5.39071 85.4632 5.40507V8.60179C85.4632 8.9514 85.4972 9.21823 85.5657 9.40079C85.6337 9.58371 85.7365 9.75153 85.8737 9.90308C85.9345 9.96394 86.0029 10.0286 86.0793 10.0974C86.1553 10.1658 86.2392 10.238 86.3303 10.3143L89.0708 12.5745C89.1316 12.6206 89.1925 12.6655 89.2526 12.7117C89.3134 12.757 89.3747 12.8027 89.4355 12.8485C89.725 13.0923 89.9726 13.3587 90.1778 13.6475C90.383 13.937 90.4858 14.3784 90.4858 14.9718V19.4472C90.4858 20.7413 90.2349 21.5739 89.7322 21.9473C89.2299 22.32 88.6747 22.5214 88.0658 22.552C87.9441 22.5672 87.822 22.5747 87.7003 22.5747C87.5783 22.5747 87.4566 22.5747 87.3349 22.5747L84.4583 22.5981C83.53 22.5823 82.8671 22.3808 82.4717 21.9927C82.0764 21.6045 81.8247 21.1748 81.7185 20.7023C81.6728 20.4748 81.6425 20.2499 81.627 20.0292C81.6119 19.8089 81.6043 19.607 81.6043 19.4241V15.7712ZM34.8667 27.9454C34.9593 27.956 35.1048 27.9704 35.2507 27.9704C35.5848 27.9704 35.8229 27.8955 35.9828 27.7394C36.1926 27.5542 36.3169 27.2092 36.3169 26.7258C36.3169 26.2605 36.2107 25.9442 36.0043 25.759C35.8516 25.6169 35.6419 25.5458 35.3395 25.5458C35.1547 25.5458 34.9842 25.5632 34.8667 25.5919V27.9454ZM35.332 25.9298C35.3607 25.9188 35.3932 25.9188 35.4249 25.9188C35.7058 25.9188 35.8335 26.2174 35.8335 26.7088C35.8335 27.3694 35.6385 27.5901 35.414 27.5901C35.3898 27.5901 35.3535 27.5901 35.332 27.583V25.9298ZM36.6121 25.5564V27.9526H37.0781V25.5564H36.6121ZM38.8235 26.6086H38.1798V26.9892H38.3934V27.5686C38.3756 27.5754 38.3439 27.5796 38.3012 27.5796C38.0838 27.5796 37.8605 27.3732 37.8605 26.7972C37.8605 26.1717 38.1122 25.9551 38.4293 25.9551C38.5464 25.9551 38.6353 25.9721 38.7025 26.008L38.7846 25.6063C38.7097 25.5707 38.5748 25.5348 38.3934 25.5348C37.885 25.5348 37.3873 25.8973 37.3767 26.7689C37.3691 27.1812 37.4795 27.5365 37.6859 27.7357C37.8457 27.8955 38.0521 27.9738 38.3257 27.9738C38.5 27.9738 38.7207 27.9318 38.8235 27.8887V26.6086ZM39.1723 25.5564V27.9526H39.6376V25.5564H39.1723ZM40.3134 27.9526H40.7786V25.9869H41.2053V25.5564H39.8904V25.9869H40.3134V27.9526ZM42.1404 27.4053L42.2436 27.9526H42.6952L42.2288 25.5564H41.671L41.1521 27.9526H41.6037L41.7103 27.4053H42.1404ZM41.7564 27.0425L41.8456 26.5447C41.8705 26.4064 41.9057 26.1569 41.931 25.9975H41.9416C41.9631 26.1569 41.9945 26.3954 42.0198 26.5413L42.0977 27.0425H41.7564ZM42.9579 27.9526H44.0389V27.558H43.4243V25.5564H42.9579V27.9526ZM46.3818 27.9526H46.7979L46.6516 25.5564H46.1611L45.9728 26.4238C45.9086 26.7258 45.8557 26.996 45.8198 27.2628H45.813C45.7703 26.9926 45.7098 26.7258 45.6421 26.4238L45.4501 25.5564H44.9592L44.7853 27.9526H45.1871L45.226 27.1203C45.2407 26.8822 45.2543 26.5803 45.2619 26.321H45.2725C45.308 26.5803 45.3719 26.8788 45.418 27.0708L45.6176 27.9137H45.9475L46.1543 27.0565C46.2004 26.872 46.2642 26.5765 46.3073 26.321H46.3175C46.3107 26.5765 46.3281 26.8856 46.3391 27.1135L46.3818 27.9526ZM47.8108 25.528C47.2813 25.528 47.0213 26.0931 47.0213 26.7473C47.0213 27.4053 47.2344 27.9809 47.7791 27.9809C48.2337 27.9809 48.5535 27.6147 48.5535 26.7118C48.5535 26.1641 48.3902 25.528 47.8108 25.528ZM47.7927 25.9336C48.0028 25.9336 48.0667 26.3134 48.0667 26.7329C48.0667 27.2201 47.9922 27.5754 47.7965 27.5754C47.6082 27.5754 47.5047 27.2984 47.5047 26.7545C47.5047 26.239 47.6082 25.9336 47.7927 25.9336ZM49.258 27.9526V27.4121C49.258 26.9325 49.2399 26.5625 49.2293 26.321H49.2365C49.2894 26.5379 49.4001 26.8399 49.478 27.0425L49.8438 27.9526H50.2709V25.5564H49.862V26.0863C49.862 26.5273 49.8941 26.9435 49.9085 27.1956H49.9009C49.8336 26.9892 49.7161 26.68 49.6454 26.4952L49.2754 25.5564H48.8487V27.9526H49.258ZM50.6829 25.5564V27.9526H51.1493V25.5564H50.6829ZM51.8239 27.9526H52.2903V25.9869H52.7163V25.5564H51.401V25.9869H51.8239V27.9526ZM53.5882 25.528C53.0579 25.528 52.7983 26.0931 52.7983 26.7473C52.7983 27.4053 53.0118 27.9809 53.5557 27.9809C54.0111 27.9809 54.3309 27.6147 54.3309 26.7118C54.3309 26.1641 54.1672 25.528 53.5882 25.528ZM53.5701 25.9336C53.7795 25.9336 53.8437 26.3134 53.8437 26.7329C53.8437 27.2201 53.7689 27.5754 53.5735 27.5754C53.3853 27.5754 53.2821 27.2984 53.2821 26.7545C53.2821 26.239 53.3853 25.9336 53.5701 25.9336ZM54.6257 27.9526H55.0917V26.996H55.1594C55.3155 26.996 55.3899 27.0814 55.4326 27.38C55.4685 27.6434 55.5218 27.8849 55.5502 27.9526H56.0373C55.9946 27.8634 55.9308 27.5686 55.8843 27.3018C55.8378 27.0459 55.7562 26.8932 55.5925 26.8293V26.8218C55.8378 26.7088 55.9629 26.4771 55.9629 26.2208C55.9629 26.0148 55.9198 25.855 55.7739 25.7238C55.6178 25.5813 55.3899 25.5458 55.1344 25.5458C54.9564 25.5458 54.7716 25.5632 54.6257 25.5919V27.9526ZM55.0917 25.923C55.1163 25.912 55.1628 25.9083 55.2017 25.9083C55.4115 25.9154 55.4935 26.0609 55.4935 26.2639C55.4935 26.4737 55.3759 26.6369 55.173 26.6369H55.0917V25.923ZM56.297 25.5564V27.9526H56.7623V25.5564H56.297ZM57.5873 27.9526V27.4121C57.5873 26.9325 57.5692 26.5625 57.5586 26.321H57.5658C57.6195 26.5379 57.7291 26.8399 57.8073 27.0425L58.1735 27.9526H58.6006V25.5564H58.1917V26.0863C58.1917 26.5273 58.2234 26.9435 58.2374 27.1956H58.2306C58.163 26.9892 58.0458 26.68 57.9747 26.4952L57.6047 25.5564H57.1784V27.9526H57.5873ZM60.3422 26.6086H59.6986V26.9892H59.9121V27.5686C59.8947 27.5754 59.8626 27.5796 59.8199 27.5796C59.6026 27.5796 59.3792 27.3732 59.3792 26.7972C59.3792 26.1717 59.6313 25.9551 59.948 25.9551C60.0648 25.9551 60.154 25.9721 60.2217 26.008L60.3033 25.6063C60.2288 25.5707 60.0932 25.5348 59.9121 25.5348C59.4038 25.5348 58.9064 25.8973 58.8958 26.7689C58.8882 27.1812 58.9986 27.5365 59.2046 27.7357C59.3645 27.8955 59.5708 27.9738 59.8448 27.9738C60.0187 27.9738 60.2394 27.9318 60.3422 27.8887V26.6086ZM62.9199 27.9526C62.7812 27.778 62.6602 27.6219 62.582 27.5225C62.7422 27.3305 62.8522 27.0032 62.884 26.6766H62.4894C62.4826 26.8581 62.4648 27.0814 62.3832 27.2379C62.291 27.1203 62.1341 26.8856 62.0309 26.7295V26.7152C62.3764 26.4771 62.4436 26.2817 62.4436 26.0647C62.4436 25.7412 62.2229 25.528 61.9172 25.528C61.5441 25.528 61.3166 25.7983 61.3166 26.1252C61.3166 26.2926 61.3699 26.4737 61.4939 26.6445V26.6513C61.2557 26.8044 61.117 27.0213 61.117 27.3093C61.117 27.6824 61.3627 27.9809 61.7788 27.9809C61.981 27.9809 62.1696 27.9103 62.2977 27.7961C62.3442 27.8634 62.3764 27.9027 62.4115 27.9526H62.9199ZM61.8639 27.6363C61.6685 27.6363 61.5441 27.4579 61.5441 27.2523C61.5441 27.103 61.6114 26.9892 61.6791 26.9219C61.8178 27.1203 61.9878 27.366 62.1129 27.5225C62.0525 27.5935 61.9742 27.6363 61.8639 27.6363ZM61.8994 25.8376C62.0241 25.8376 62.0525 25.9755 62.0525 26.0863C62.0525 26.225 61.9954 26.3459 61.8461 26.4631C61.7679 26.3459 61.7289 26.2424 61.7289 26.1078C61.7289 25.9585 61.7894 25.8376 61.8994 25.8376ZM65.2129 27.9526H65.6286L65.4831 25.5564H64.9926L64.8043 26.4238C64.7401 26.7258 64.6868 26.996 64.6509 27.2628H64.6441C64.6017 26.9926 64.5409 26.7258 64.4733 26.4238L64.2812 25.5564H63.7907L63.6168 27.9526H64.0182L64.0575 27.1203C64.0715 26.8822 64.0862 26.5803 64.093 26.321H64.1036C64.1391 26.5803 64.2034 26.8788 64.2495 27.0708L64.4479 27.9137H64.779L64.985 27.0565C65.0315 26.872 65.0957 26.5765 65.1385 26.321H65.149C65.1419 26.5765 65.1596 26.8856 65.1706 27.1135L65.2129 27.9526ZM66.781 27.4053L66.8838 27.9526H67.3351L66.8695 25.5564H66.3116L65.7927 27.9526H66.2443L66.3502 27.4053H66.781ZM66.397 27.0425L66.4858 26.5447C66.51 26.4064 66.5463 26.1569 66.5709 25.9975H66.5815C66.6026 26.1569 66.6351 26.3954 66.6593 26.5413L66.7379 27.0425H66.397ZM68.0071 27.9526V27.4121C68.0071 26.9325 67.9893 26.5625 67.9784 26.321H67.9859C68.0392 26.5379 68.1492 26.8399 68.2275 27.0425L68.5937 27.9526H69.0204V25.5564H68.6115V26.0863C68.6115 26.5273 68.6436 26.9435 68.6576 27.1956H68.6508C68.5827 26.9892 68.4652 26.68 68.3945 26.4952L68.0249 25.5564H67.5985V27.9526H68.0071ZM70.2435 27.4053L70.3463 27.9526H70.7975L70.3323 25.5564H69.7737L69.2551 27.9526H69.7064L69.8133 27.4053H70.2435ZM69.8591 27.0425L69.9479 26.5447C69.9732 26.4064 70.0088 26.1569 70.0333 25.9975H70.0439C70.0654 26.1569 70.0976 26.3954 70.1225 26.5413L70.2004 27.0425H69.8591ZM72.3332 26.6086H71.6903V26.9892H71.9034V27.5686C71.886 27.5754 71.8539 27.5796 71.8112 27.5796C71.5943 27.5796 71.3705 27.3732 71.3705 26.7972C71.3705 26.1717 71.6226 25.9551 71.9393 25.9551C72.0565 25.9551 72.1453 25.9721 72.213 26.008L72.2946 25.6063C72.2201 25.5707 72.0845 25.5348 71.9034 25.5348C71.3951 25.5348 70.8977 25.8973 70.8867 26.7689C70.8795 27.1812 70.9899 27.5365 71.1963 27.7357C71.3558 27.8955 71.5625 27.9738 71.8358 27.9738C72.01 27.9738 72.2307 27.9318 72.3332 27.8887V26.6086ZM73.6953 26.5126H73.1476V25.9619H73.7236V25.5564H72.682V27.9526H73.7663V27.5474H73.1476V26.9004H73.6953V26.5126ZM75.5903 27.9526H76.0061L75.8602 25.5564H75.3696L75.181 26.4238C75.1175 26.7258 75.0642 26.996 75.028 27.2628H75.0215C74.9788 26.9926 74.9184 26.7258 74.8511 26.4238L74.6587 25.5564H74.1681L73.9939 27.9526H74.3953L74.435 27.1203C74.4486 26.8822 74.4633 26.5803 74.4701 26.321H74.4807C74.517 26.5803 74.5808 26.8788 74.6266 27.0708L74.8258 27.9137H75.1565L75.3624 27.0565C75.4089 26.872 75.4728 26.5765 75.5155 26.321H75.5261C75.5189 26.5765 75.5371 26.8856 75.5476 27.1135L75.5903 27.9526ZM77.3603 26.5126H76.813V25.9619H77.389V25.5564H76.347V27.9526H77.4317V27.5474H76.813V26.9004H77.3603V26.5126ZM78.1566 27.9526V27.4121C78.1566 26.9325 78.1393 26.5625 78.1287 26.321H78.1355C78.1888 26.5379 78.2995 26.8399 78.3774 27.0425L78.7432 27.9526H79.1703V25.5564H78.7614V26.0863C78.7614 26.5273 78.7935 26.9435 78.8075 27.1956H78.7999C78.7326 26.9892 78.6155 26.68 78.5444 26.4952L78.1744 25.5564H77.7477V27.9526H78.1566ZM79.8419 27.9526H80.308V25.9869H80.7343V25.5564H79.419V25.9869H79.8419V27.9526ZM81.424 27.8781C81.5023 27.9243 81.6905 27.9738 81.8825 27.9738C82.3519 27.9738 82.6751 27.6861 82.6751 27.2489C82.6751 26.996 82.5583 26.7545 82.2416 26.5625C81.9819 26.4064 81.9112 26.3316 81.9112 26.1891C81.9112 26.0609 82.0069 25.9404 82.206 25.9404C82.341 25.9404 82.4442 25.9793 82.5118 26.0224L82.5866 25.6203C82.5152 25.5775 82.3659 25.5348 82.2098 25.5348C81.7083 25.5348 81.4524 25.855 81.4524 26.239C81.4524 26.4559 81.5771 26.7088 81.9041 26.9072C82.1066 27.0383 82.2132 27.1238 82.2132 27.2984C82.2132 27.4545 82.1066 27.5686 81.8863 27.5686C81.751 27.5686 81.5873 27.5297 81.4917 27.476L81.424 27.8781ZM83.6778 27.9526V27.0175L84.2145 25.5564H83.7311L83.589 26.1184C83.5466 26.2892 83.5069 26.4631 83.4786 26.6369H83.4718C83.4363 26.4597 83.3898 26.2817 83.3475 26.129L83.1834 25.5564H82.686L83.2122 27.0353V27.9526H83.6778ZM84.2432 27.8781C84.3211 27.9243 84.51 27.9738 84.702 27.9738C85.1711 27.9738 85.4942 27.6861 85.4942 27.2489C85.4942 26.996 85.3774 26.7545 85.0607 26.5625C84.8011 26.4064 84.73 26.3316 84.73 26.1891C84.73 26.0609 84.826 25.9404 85.0256 25.9404C85.1601 25.9404 85.2637 25.9793 85.3309 26.0224L85.4058 25.6203C85.3347 25.5775 85.1854 25.5348 85.029 25.5348C84.5274 25.5348 84.2719 25.855 84.2719 26.239C84.2719 26.4559 84.3959 26.7088 84.7232 26.9072C84.9254 27.0383 85.032 27.1238 85.032 27.2984C85.032 27.4545 84.9254 27.5686 84.7051 27.5686C84.5701 27.5686 84.4065 27.5297 84.3105 27.476L84.2432 27.8781ZM86.0241 27.9526H86.4901V25.9869H86.9168V25.5564H85.6012V25.9869H86.0241V27.9526ZM88.175 26.5126H87.6278V25.9619H88.2038V25.5564H87.1621V27.9526H88.2461V27.5474H87.6278V26.9004H88.175V26.5126ZM90.0697 27.9526H90.4858L90.34 25.5564H89.8497L89.6608 26.4238C89.5969 26.7258 89.5432 26.996 89.5081 27.2628H89.5009C89.4586 26.9926 89.3981 26.7258 89.3301 26.4238L89.1385 25.5564H88.6479L88.474 27.9526H88.8754L88.9147 27.1203C88.9287 26.8822 88.9427 26.5803 88.9502 26.321H88.9608C88.996 26.5803 89.0598 26.8788 89.1067 27.0708L89.3055 27.9137H89.6362L89.8426 27.0565C89.8883 26.872 89.9526 26.5765 89.9953 26.321H90.0059C89.9991 26.5765 90.0164 26.8856 90.0274 27.1135L90.0697 27.9526Z" fill="#808080"/>
<path id="Ico" fill-rule="evenodd" clip-rule="evenodd" d="M4.21922 0H26.5409C28.861 0 30.7591 1.89905 30.7591 4.21825V26.5408C30.7591 28.86 28.861 30.76 26.5409 30.76H4.21922C1.89909 30.76 0.000976562 28.86 0.000976562 26.5408V4.21825C0.000976562 1.89905 1.89909 0 4.21922 0ZM15.2291 29.252H13.6817L13.6498 28.2307L13.3928 29.252H13.1209C12.4053 29.252 11.7882 28.9866 11.294 28.468C10.661 27.804 10.1068 27.2226 9.5966 26.6881L9.28712 25.2654L9.22147 26.2923C8.716 25.7606 8.25085 25.2663 7.7857 24.7646L7.75287 23.6936L7.54937 24.5058C7.39557 24.3389 7.24364 24.171 7.08891 24.0003C6.68284 23.5492 6.46433 23.0362 6.44276 22.4276L6.29365 18.2694C6.28896 18.1465 6.37055 18.0396 6.48871 18.0124C6.60875 17.9852 6.74098 18.0406 6.77755 18.1587L7.79695 21.4907C7.9198 21.8959 8.18895 22.1791 8.51624 22.4473L10.315 23.9187C10.4537 24.0294 10.6563 24.0106 10.7698 23.8737L12.3941 21.9034C12.4231 21.8696 12.4541 21.8471 12.4935 21.8302L13.1987 21.5395C13.3141 21.4926 13.3872 21.3895 13.3975 21.2675C13.4041 21.17 13.4388 21.0847 13.5138 21.019L13.812 20.7527C13.8027 21.1663 14.0718 21.4288 14.4085 21.5892C15.4288 22.075 15.3322 22.075 16.3516 21.5892C16.6883 21.4288 16.9565 21.1663 16.948 20.7527L17.2463 21.019C17.3204 21.0837 17.3541 21.17 17.3616 21.2675C17.3719 21.3895 17.446 21.4926 17.5614 21.5395L18.2666 21.8302C18.306 21.8471 18.3369 21.8705 18.3651 21.9034L19.9903 23.8737C20.1028 24.0106 20.3063 24.0294 20.4442 23.9187L22.2438 22.4473C22.5711 22.1791 22.8393 21.8968 22.9641 21.4907L23.9825 18.1587C24.0191 18.0406 24.1504 17.9852 24.2714 18.0124C24.3905 18.0396 24.4702 18.1475 24.4655 18.2694L24.3173 22.4276C24.2957 23.0353 24.0772 23.5492 23.6693 24.0003C23.4808 24.2094 23.2932 24.4148 23.1066 24.6183L22.8759 23.6936L22.8365 24.9118C22.3789 25.4051 21.9165 25.8947 21.4129 26.4245L21.3417 25.2654L20.99 26.869C20.5286 27.3539 20.0278 27.8772 19.4661 28.468C18.9718 28.9866 18.3548 29.252 17.6392 29.252H17.3016L17.0897 28.2833L17.0296 29.252H15.5948L15.3819 27.9419L15.2291 29.252ZM15.3791 23.6261C15.2619 23.6261 15.1418 23.6505 15.0255 23.7002L13.526 24.3417C13.2597 24.457 13.0777 24.6708 13.0074 24.9522L12.8405 25.6161C12.8123 25.7324 12.8376 25.8468 12.9155 25.9378C12.9933 26.0288 13.1012 26.0738 13.2203 26.0635L14.1487 25.9847C14.1909 25.9819 14.2265 25.9622 14.2509 25.9303C14.2772 25.8965 14.2866 25.859 14.2791 25.8168L14.2425 25.6068C14.2303 25.5308 14.25 25.4614 14.2987 25.4014C14.3485 25.3432 14.4141 25.3123 14.4929 25.3123H15.3791H16.2681C16.346 25.3123 16.4116 25.3432 16.4613 25.4014C16.511 25.4614 16.5298 25.5317 16.5176 25.6068L16.481 25.8168C16.4735 25.8581 16.4829 25.8965 16.5092 25.9303C16.5335 25.9622 16.5692 25.9819 16.6104 25.9847L17.5389 26.0635C17.658 26.0729 17.7668 26.0288 17.8446 25.9378C17.9224 25.8468 17.9477 25.7343 17.9196 25.6161L17.7527 24.9522C17.6824 24.6699 17.5004 24.457 17.2341 24.3417L15.7345 23.7002C15.6182 23.6505 15.4973 23.6261 15.3791 23.6261ZM14.3428 1.66742L10.4706 2.57709C10.0505 2.67556 9.70444 2.84249 9.40622 3.15384L7.72474 4.91128C6.11359 6.58527 5.04824 8.78629 4.80816 11.2312C4.5859 11.3184 4.39272 11.4619 4.24736 11.6522C4.10294 11.8417 4.01103 12.0695 3.9904 12.3049C3.96789 12.5731 4.03166 12.8479 4.21172 13.0964C4.91789 14.0727 6.99513 15.4597 8.13268 15.8939C8.36526 15.9811 8.39058 16.1668 8.39808 16.2719L8.43278 16.7042C8.44403 16.8561 8.51156 16.9827 8.62784 17.0831L9.04704 17.4479C9.12113 17.5116 9.19803 17.5529 9.29368 17.5745L13.164 18.4372C13.3328 18.4766 13.496 18.4447 13.6357 18.3425L14.0474 18.0406C14.1675 17.9524 14.2303 17.8352 14.2706 17.6926C14.5501 16.7154 16.21 16.7154 16.4895 17.6926C16.5298 17.8352 16.5926 17.9524 16.7136 18.0406L17.1225 18.3425C17.2641 18.4447 17.4263 18.4766 17.5961 18.4372L21.4664 17.5745C21.562 17.5529 21.638 17.5126 21.713 17.4479L22.1322 17.0831C22.2485 16.9827 22.317 16.857 22.3273 16.7042L22.3536 16.3084C22.3667 16.119 22.4333 15.968 22.6265 15.8939C23.7368 15.4635 25.8019 14.128 26.5484 13.0964C26.7284 12.8479 26.7922 12.5731 26.7697 12.3049C26.749 12.0695 26.6562 11.8417 26.5118 11.6522C26.3664 11.4619 26.1732 11.3184 25.951 11.2312C25.7118 8.78629 24.6456 6.58527 23.0344 4.91128L21.3539 3.15384C21.0566 2.84249 20.7096 2.66805 20.2894 2.56959L16.3338 1.64303C15.6211 1.5033 15.2056 1.46485 14.3428 1.66742ZM15.3791 14.7442C17.5539 14.7442 19.316 12.982 19.316 10.8082C19.316 10.3674 19.2438 9.94448 19.1106 9.54967C18.9015 8.9279 18.8087 8.36522 18.8087 7.70876V6.80377C18.8087 6.48023 18.9259 5.67091 19.1585 5.44583L19.8909 4.73685C20.0906 4.54273 20.3917 4.51834 20.6214 4.67683C21.0209 4.9563 21.4054 5.26953 21.7702 5.61839C23.2426 7.03447 24.246 8.93259 24.5274 11.0595C24.5808 11.4722 24.6484 11.822 24.7487 12.2243C24.7815 12.3621 24.7806 12.5019 24.745 12.6491C24.6859 12.8911 24.5264 13.0467 24.338 13.2071C20.4442 16.5344 10.315 16.5316 6.42213 13.2071C6.23269 13.0467 6.07326 12.8911 6.01418 12.6491C5.97948 12.5019 5.97854 12.3621 6.01137 12.2243C6.11265 11.822 6.17923 11.4722 6.23269 11.0595C6.51309 8.93259 7.51748 7.03447 8.98984 5.61839C9.37059 5.25452 9.77197 4.92816 10.1912 4.6412C10.42 4.48364 10.721 4.50897 10.9189 4.70215C11.9458 5.69716 12.0368 6.03946 12.0368 7.46586C12.0368 8.17672 11.9299 8.78442 11.6841 9.4512C11.5294 9.87415 11.4441 10.3309 11.4441 10.8082C11.4441 12.982 13.2062 14.7442 15.3791 14.7442ZM18.6286 4.07007L18.1475 4.55023C17.6561 5.04164 17.4085 6.16888 17.4085 6.86379V7.43492C17.1262 7.26424 16.8168 7.12732 16.4932 7.03166C16.2456 6.95945 16.0796 6.73907 16.0796 6.47929V3.78779C16.0796 3.60492 16.1556 3.44831 16.2991 3.33577C16.4435 3.2223 16.6151 3.18572 16.7914 3.22792L18.5104 3.64525C18.6014 3.66869 18.668 3.73153 18.6914 3.82343C18.7186 3.91252 18.6942 4.00255 18.6286 4.07007ZM14.6795 3.78592V6.47929C14.6795 6.73907 14.5163 6.95945 14.2669 7.03166C13.9743 7.11794 13.6957 7.23704 13.4369 7.38428V6.86661C13.4369 6.17076 13.1865 5.04164 12.6932 4.55023L12.1887 4.04663C12.123 3.98192 12.0996 3.89095 12.1249 3.80092C12.1502 3.71089 12.2178 3.64525 12.3078 3.62368L13.9696 3.22699C14.1478 3.18291 14.3175 3.22042 14.4601 3.3339C14.6045 3.4455 14.6795 3.60305 14.6795 3.78592ZM15.3791 8.28926C16.7699 8.28926 17.899 9.4165 17.899 10.8082C17.899 12.198 16.7699 13.3271 15.3791 13.3271C13.9893 13.3271 12.8611 12.198 12.8611 10.8082C12.8611 9.4165 13.9893 8.28926 15.3791 8.28926ZM4.21922 1.52581H8.83885C8.94388 1.52581 9.03485 1.58583 9.07518 1.68242C9.11644 1.77995 9.09487 1.88593 9.02172 1.96189L8.43841 2.55364C8.21802 2.77496 7.95075 2.88844 7.63752 2.88844H4.21922C3.85348 2.88844 3.5215 3.03755 3.27954 3.2795C3.03853 3.52052 2.88848 3.8525 2.88848 4.21825C2.88848 11.6588 2.88848 19.0984 2.88848 26.5418C2.88848 26.9066 3.03853 27.2376 3.27954 27.4796C3.5215 27.7215 3.85348 27.8716 4.21922 27.8716H8.69161C9.00953 27.8716 9.28337 27.9888 9.50375 28.2176C9.68944 28.4136 9.87512 28.6068 10.0599 28.8009C10.1321 28.8769 10.1518 28.981 10.1105 29.0785C10.0693 29.1751 9.97828 29.2333 9.87419 29.2333H4.21922C3.47742 29.2333 2.80314 28.9313 2.31548 28.4427C1.82782 27.956 1.52491 27.2826 1.52491 26.5418V4.21825C1.52491 3.47644 1.82782 2.8031 2.31548 2.31638C2.80314 1.82778 3.47742 1.52581 4.21922 1.52581ZM26.5409 1.52581C27.2827 1.52581 27.9569 1.82778 28.4437 2.31638C28.9323 2.8031 29.2342 3.47644 29.2342 4.21825V26.5418C29.2342 27.2826 28.9323 27.956 28.4437 28.4427C27.9569 28.9313 27.2827 29.2333 26.5409 29.2333H20.8859C20.7799 29.2333 20.6899 29.1751 20.6486 29.0785C20.6074 28.981 20.628 28.8769 20.6993 28.8009C20.885 28.6068 21.0697 28.4136 21.2554 28.2185C21.4739 27.9888 21.7496 27.8716 22.0675 27.8716H26.5409C26.9066 27.8716 27.2386 27.7215 27.4805 27.4796C27.7216 27.2376 27.8716 26.9066 27.8716 26.5418C27.8716 19.0984 27.8716 11.6588 27.8716 4.21825C27.8716 3.8525 27.7216 3.52052 27.4805 3.2795C27.2386 3.03755 26.9066 2.88844 26.5409 2.88844H23.1207C22.8093 2.88844 22.5411 2.77496 22.3207 2.55364L21.7384 1.96189C21.6643 1.88593 21.6436 1.77995 21.683 1.68242C21.7252 1.58583 21.8162 1.52581 21.9212 1.52581H26.5409Z" fill="#808080"/>
</g>
</svg>
