<svg width="36" height="22" viewBox="0 0 36 22" fill="none" xmlns="http://www.w3.org/2000/svg">
<g id="&#208;&#164;&#208;&#190;&#208;&#189;&#208;&#176;&#209;&#128;&#209;&#140;">
<path id="3" d="M9.47296 1.75965C11.0689 1.94826 12.6649 2.1387 14.2609 2.32731C15.5827 5.66445 15.5759 9.06987 14.2609 12.547C12.6649 12.7364 11.0689 12.926 9.47296 13.1157M9.47296 1.75965C6.51774 4.23249 6.83976 10.8963 9.47296 13.1157M9.47296 1.75965V13.1157M21.4037 7.43727C21.4037 3.81996 21.4037 3.90811 21.4037 2.32992C24.033 2.32992 24.8714 2.32992 27.5569 2.32992C30.5576 2.32992 32.9698 5.01727 32.9698 7.43727M1.58984 7.42602H4.4828M2.8264 1.66992L5.46561 2.85259M2.81358 13.1772L5.45384 11.9961M15.2497 7.43544C17.3613 8.08445 17.6671 9.34141 17.6124 10.3004C17.5355 11.6385 16.142 13.1002 14.8074 15.1718C11.8964 19.689 15.6468 21.4924 16.5519 18.3653C17.066 16.5909 17.2478 13.9481 19.9574 14.014M31.017 15.7999H23.3575M31.017 11.9999H23.3575M19.9574 7.43727V18.6983C19.9574 19.7392 20.8078 20.5899 21.8487 20.5899H32.5251C33.566 20.5899 34.4164 19.7392 34.4164 18.6983V7.43727H19.9574Z" stroke="#4D4D4D" stroke-width="1.65" stroke-linecap="round" stroke-linejoin="round"/>
</g>
</svg>
