<svg width="29" height="20" viewBox="0 0 29 20" fill="none" xmlns="http://www.w3.org/2000/svg">
<g id="3">
<g id="2040101594128">
<path id="Vector" d="M19.6526 15.275C19.6526 15.7902 19.3092 16.2195 18.7941 16.2195C18.2789 16.2195 17.8496 15.7902 17.8496 15.275C17.8496 14.7599 18.2789 14.3306 18.7941 14.3306C19.3092 14.3306 19.6526 14.7599 19.6526 15.275Z" fill="#FFCC00"/>
<path id="Vector_2" d="M18.7935 12.6135V7.80542" stroke="#FFCC00" stroke-width="1.65" stroke-linecap="round" stroke-linejoin="round"/>
<path id="Vector_3" fill-rule="evenodd" clip-rule="evenodd" d="M18.7936 1.19434L27.7228 18.1943H9.86426L18.7936 1.19434Z" stroke="#FFCC00" stroke-width="1.65" stroke-linecap="round" stroke-linejoin="round"/>
</g>
<path id="Vector_4" fill-rule="evenodd" clip-rule="evenodd" d="M13.7287 1.88128C12.1832 1.70957 10.5519 1.45199 8.92058 1.28027C6.00138 3.77017 6.25896 10.4671 8.92058 12.6995L12.9559 12.1843L14.5014 9.26512C15.0165 6.77522 14.6731 4.28532 13.7287 1.88128Z" stroke="#FFCC00" stroke-width="1.65" stroke-linecap="round" stroke-linejoin="round"/>
<path id="Vector_5" d="M8.91992 1.28027V12.6995" stroke="#FFCC00" stroke-width="1.65" stroke-linecap="round" stroke-linejoin="round"/>
<path id="Vector_6" d="M1.02148 6.94678H3.94068" stroke="#FFCC00" stroke-width="1.65" stroke-linecap="round" stroke-linejoin="round"/>
<path id="Vector_7" d="M2.22363 1.19434L4.88525 2.39636" stroke="#FFCC00" stroke-width="1.65" stroke-linecap="round" stroke-linejoin="round"/>
<path id="Vector_8" d="M2.22363 12.7853L4.88525 11.5833" stroke="#FFCC00" stroke-width="1.65" stroke-linecap="round" stroke-linejoin="round"/>
</g>
</svg>
