<svg width="30" height="30" viewBox="0 0 30 30" fill="none" xmlns="http://www.w3.org/2000/svg">
<g id="Frame 10">
<mask id="mask0_75_26216" style="mask-type:alpha" maskUnits="userSpaceOnUse" x="0" y="0" width="30" height="30">
<circle id="Ellipse 1" cx="15" cy="15" r="15" fill="#C4C4C4"/>
</mask>
<g mask="url(#mask0_75_26216)">
<path id="Vector" fill-rule="evenodd" clip-rule="evenodd" d="M13.3901 29.9875C13.7789 28.0805 14.1252 26.137 14.5139 24.2297C12.619 23.0748 13.2122 21.0408 14.9429 20.9819C16.657 20.924 17.496 23.0044 15.4855 24.2297C15.8742 26.137 16.2206 28.0805 16.6093 29.9875H13.3901ZM1.21456 29.9021C0.36059 29.8934 0.0121623 29.4542 0 28.7283C0.129487 27.4082 0.258914 26.088 0.388656 24.7676C0.730755 22.3237 3.26885 20.5452 8.98769 19.7311C10.9815 19.438 11.11 25.7179 11.8056 30C8.27514 29.9671 4.74474 29.9347 1.21456 29.9021ZM28.7852 29.9021C29.6392 29.8934 29.9876 29.4542 30 28.7283C29.8703 27.4082 29.7408 26.088 29.6113 24.7676C29.269 22.3237 26.7308 20.5452 21.012 19.7311C19.0185 19.438 18.8898 25.7179 18.1942 30C21.7246 29.9671 25.255 29.9347 28.7852 29.9021ZM14.9998 18.8841C18.3891 18.8841 20.1001 16.444 21.4657 12.6077C22.2477 12.0589 22.5849 11.2861 22.4382 10.2702C20.1626 10.9109 17.2337 10.8979 15.003 10.8874V10.8897H14.9965V10.8874C12.766 10.8979 9.83683 10.9109 7.56125 10.2702C7.41454 11.2861 7.75191 12.0589 8.53391 12.6077C9.89951 16.444 11.6105 18.8841 14.9998 18.8841ZM10.0398 7.79312C13.2109 8.07929 16.7802 8.10428 19.9581 7.79312L19.9485 8.60214C15.877 8.84725 14.129 8.82557 10.0525 8.60214L10.0398 7.79312ZM22.611 9.09006C23.2861 8.54782 23.6578 7.97675 22.1559 8.05225C22.1599 7.82755 22.1576 7.60974 22.1495 7.3983C21.7616 7.34499 21.2717 7.26924 20.7819 7.19349C20.0916 7.08663 19.4009 6.97976 19.0449 6.94048L18.885 6.92262L18.7819 6.80097C18.4142 6.36712 18.0563 5.92894 17.6985 5.49153C17.3567 5.0735 17.0149 4.65521 16.6229 4.19229L16.5151 4.06528L16.5265 3.90204C16.5615 3.39755 16.5777 2.87316 16.5937 2.34903C16.6096 1.83025 16.6254 1.31123 16.655 0.852892C16.6 0.13645 15.8043 0 14.9998 0C14.1952 0 13.4 0.146397 13.3453 0.863351C13.3742 1.31887 13.3901 1.83408 13.4058 2.34903C13.4218 2.87316 13.438 3.39755 13.4733 3.90204L13.4844 4.06528L13.3769 4.19229C12.9854 4.65445 12.6443 5.07171 12.3032 5.48898C11.9449 5.92741 11.5861 6.3661 11.2179 6.80097L11.1145 6.92262L10.9547 6.94048C10.5421 6.98588 9.91062 7.06648 9.2799 7.14681C8.75257 7.21415 8.22442 7.28123 7.85293 7.32586C7.84254 7.55975 7.839 7.80179 7.84382 8.05225C6.34163 7.97675 6.71343 8.54782 7.38876 9.09006C9.53078 9.83354 12.6628 9.81925 14.9944 9.80854L14.9965 9.80625H15.003L15.0054 9.80854C17.3369 9.81925 20.469 9.83354 22.611 9.09006ZM22.0837 6.56989C21.7193 3.6475 20.0283 2.10954 17.4456 1.12835C17.4231 1.53592 17.4104 1.9537 17.3977 2.37147C17.3827 2.86194 17.3675 3.35266 17.3412 3.79211C17.6721 4.18566 17.996 4.58175 18.3196 4.9776C18.6308 5.35813 18.9422 5.73892 19.2914 6.15365C19.7042 6.20516 20.3033 6.298 20.9018 6.39058C21.3207 6.45537 21.7395 6.52015 22.0837 6.56989ZM12.5544 1.1383C9.99243 2.11056 8.30756 3.62557 7.92491 6.50128C8.29261 6.4569 8.73586 6.40028 9.17906 6.34391C9.75759 6.2702 10.336 6.19649 10.7088 6.15288C11.0585 5.73766 11.3705 5.35635 11.6819 4.97505C12.005 4.57997 12.3283 4.18464 12.6585 3.79211C12.6319 3.35266 12.6167 2.86194 12.602 2.37147C12.5893 1.95727 12.5764 1.54281 12.5544 1.1383Z" fill="#666666"/>
</g>
</g>
</svg>
