<svg width="34" height="34" viewBox="0 0 34 34" fill="none" xmlns="http://www.w3.org/2000/svg">
<g id="radio-svgrepo-com 1">
<path id="Vector" d="M18.021 10.1074H13.7266V8.86408C13.7266 8.09307 13.1016 7.46811 12.3306 7.46811C11.5596 7.46811 10.9347 8.09307 10.9347 8.86408V10.1074H9.59784V5.39597C9.59784 4.62496 8.97288 4 8.20187 4C7.43086 4 6.8059 4.62496 6.8059 5.39597V10.1074H6.46572C5.63931 10.1074 4.96916 10.7773 4.96916 11.6037C4.96916 12.0697 4.96916 12.6257 4.96916 13.249C4.96462 13.249 4.96017 13.2483 4.95563 13.2483C4.19457 13.2483 3.57764 13.8652 3.57764 14.6263V15.9929C3.57764 16.7539 4.19457 17.3708 4.95563 17.3708C4.96017 17.3708 4.96462 17.3702 4.96916 17.3701C4.96916 21.4328 4.96916 26.1346 4.96916 28.5037C4.96916 29.3303 5.63905 30 6.46572 30H18.021C18.8474 30 19.5176 29.3301 19.5176 28.5037C19.5176 24.7862 19.5176 15.3244 19.5176 11.6038C19.5176 10.777 18.8477 10.1074 18.021 10.1074ZM16.8249 15.2867C16.8249 15.5462 16.6146 15.7567 16.355 15.7567H8.13181C7.87225 15.7567 7.66189 15.5462 7.66189 15.2867V12.6494C7.66189 12.3899 7.87233 12.1795 8.13181 12.1795H16.355C16.6146 12.1795 16.8249 12.3899 16.8249 12.6494V15.2867Z" fill="#808080"/>
</g>
</svg>
