<svg width="21" height="21" viewBox="0 0 21 21" fill="none" xmlns="http://www.w3.org/2000/svg">
<g id="&#208;&#161;&#208;&#188;&#208;&#181;&#208;&#189;&#208;&#176; &#226;&#128;&#148; &#208;&#160;&#208;&#181;&#208;&#188;&#208;&#190;&#208;&#189;&#209;&#130;&#208;&#189;&#208;&#176;&#209;&#143; &#209;&#129;&#208;&#188;&#208;&#181;&#208;&#189;&#208;&#176;">
<path id="2" d="M8.10349 13.0874L7.70679 14.2752L3.78407 18.1419L3.24601 17.6038L7.27947 13.5684L8.11294 13.0893L17.2052 3.99709M8.68683 8.54645L5.43635 5.295M15.1024 14.9631L12.6483 12.507M5.37284 1C5.99981 1.54945 6.35841 2.34188 6.35841 3.17535C6.35841 4.77388 5.0618 6.07049 3.46326 6.07049C2.45913 6.07049 1.52731 5.55035 1 4.69571M20 6.79094L14.4103 1.19933L13.6678 1.87776L16.5026 4.71265L20 6.79094ZM18.2624 16.2756C18.2624 17.2988 17.433 18.1282 16.4098 18.1282C15.3867 18.1282 14.5572 17.2988 14.5572 16.2756C14.5572 15.2525 15.3867 14.423 16.4098 14.423C17.433 14.423 18.2624 15.2525 18.2624 16.2756Z" stroke="#4D4D4D" stroke-width="1.62498" stroke-linecap="round" stroke-linejoin="round"/>
</g>
</svg>
