<svg width="26" height="26" viewBox="0 0 26 26" fill="none" xmlns="http://www.w3.org/2000/svg">
<g id="Main_Icon - &#208;&#155;&#208;&#176;&#208;&#188;&#208;&#191;&#208;&#190;&#208;&#178;&#208;&#176;&#209;&#143; &#226;&#128;&#148; &#208;&#160;&#208;&#181;&#208;&#188;&#208;&#190;&#208;&#189;&#209;&#130; &#209;&#132;&#208;&#190;&#208;&#189;&#208;&#176;&#209;&#128;&#208;&#181;&#208;&#185;">
<path id="3-2" d="M11.7251 15.1053L11.4308 15.9857L8.52393 18.8517L8.12479 18.4534L11.1145 15.4626L11.7316 15.1076L18.4701 8.36933M11.7439 11.3214L9.74729 9.3317M16.9094 16.4956L15.5866 15.1694M9.70085 6.14831C10.1655 6.55542 10.4311 7.14258 10.4311 7.76109C10.4311 8.94567 9.47094 9.90576 8.28632 9.90576C7.54188 9.90576 6.85157 9.52087 6.46125 8.88698M25 12.5C25 18.8513 19.8513 24 13.5 24C7.14872 24 2 18.8513 2 12.5C2 6.14873 7.14872 1 13.5 1C19.8513 1 25 6.14873 25 12.5ZM20.5407 10.4399L16.3983 6.29645L15.8476 6.79872L17.949 8.89923L20.5407 10.4399ZM19.2527 17.4685C19.2527 18.2266 18.6381 18.8412 17.8801 18.8412C17.122 18.8412 16.5074 18.2266 16.5074 17.4685C16.5074 16.7105 17.122 16.0959 17.8801 16.0959C18.6381 16.0959 19.2527 16.7105 19.2527 17.4685Z" stroke="#808080" stroke-width="1.65" stroke-linecap="round" stroke-linejoin="round"/>
</g>
</svg>
