<svg width="18" height="19" viewBox="0 0 18 19" fill="none" xmlns="http://www.w3.org/2000/svg">
<path id="Vector" d="M15.1303 18.3676H13.3627H13.3412H13.3197H4.4153H4.39384H4.37261H2.60474C1.89146 18.3676 1.2388 18.074 0.766823 17.6043L0.74182 17.5781C0.283047 17.1052 0 16.4644 0 15.7629V3.23731C0 2.52167 0.293662 1.87137 0.763285 1.39939L0.789467 1.37439C1.26263 0.91538 1.90326 0.632568 2.60474 0.632568H4.37261H4.39384H4.4153H12.4461C12.6956 0.632568 12.9178 0.744372 13.0678 0.921513L17.4926 5.34507C17.6518 5.50311 17.7315 5.71138 17.7315 5.9206L17.735 15.7629C17.735 16.4761 17.4414 17.1288 16.9718 17.6008L16.9458 17.6258C16.4727 18.0848 15.8341 18.3676 15.1303 18.3676ZM5.20831 2.26127V5.10731H11.5519C12.0014 5.10731 12.3663 5.47221 12.3663 5.92178C12.3663 6.37112 12.0014 6.73601 11.5519 6.73601H4.39384C3.9445 6.73601 3.57961 6.37112 3.57961 5.92178V2.26127H2.60474C2.33491 2.26127 2.09007 2.37072 1.91411 2.5429C1.73815 2.72264 1.6287 2.96747 1.6287 3.23731V15.7629C1.6287 16.0327 1.73815 16.2778 1.91057 16.4535C2.09007 16.6295 2.33491 16.7389 2.60474 16.7389H3.57961V10.3953C3.57961 9.94601 3.9445 9.58088 4.39384 9.58088H13.3412C13.7905 9.58088 14.1554 9.94601 14.1554 10.3953V16.7389H15.1303C15.4001 16.7389 15.6452 16.6295 15.8212 16.4573C15.9971 16.2778 16.1063 16.0327 16.1063 15.7629V6.25342L12.113 2.26127H5.20831ZM12.5267 16.7389V11.2096H5.20831V16.7389H12.5267Z" fill="#E6E6E6"/>
</svg>
