<svg width="182" height="82" viewBox="0 0 182 82" fill="none" xmlns="http://www.w3.org/2000/svg">
<path id="Text" fill-rule="evenodd" clip-rule="evenodd" d="M0.365234 63.4367V1.07675H20.0381C20.5321 1.07675 21.0654 1.10256 21.6344 1.15169C22.2046 1.20085 22.8104 1.27583 23.4519 1.37412C24.8897 1.72068 26.2107 2.55137 27.4248 3.86259C28.6389 5.17256 29.2423 7.41276 29.2423 10.5808V54.0076C29.2423 54.5028 29.2177 55.1099 29.1686 55.8251C29.1194 56.544 28.9707 57.2727 28.7262 58.0149C28.328 59.4011 27.4998 60.6496 26.2353 61.7642C24.9757 62.8788 22.9075 63.4367 20.0381 63.4367H0.365234ZM12.8357 56.6054H14.024C14.7196 56.6054 15.3488 56.3572 15.919 55.8619C16.4867 55.3667 16.7718 54.5028 16.7718 53.2653V11.1743C16.7718 10.0843 16.5371 9.30398 16.0664 8.83334C15.5958 8.36268 15.0883 8.08003 14.5451 7.98175C14.4468 7.93259 14.346 7.90677 14.2502 7.90677C14.1469 7.90677 14.0486 7.90677 13.9491 7.90677H12.8357V56.6054ZM36.5184 63.4367V1.07675H51.3655L61.3119 42.2043L71.2596 1.07675H86.1092V63.4367H73.6362V28.0245L66.5088 63.4367H56.1163L48.9889 28.0245V63.4367H36.5184ZM94.4212 63.4367V1.07675H109.268L119.217 42.2043L129.165 1.07675H144.012V63.4367H131.54V28.0245L124.414 63.4367H114.02L106.894 28.0245V63.4367H94.4212ZM152.327 42.2781H164.798V55.9369C164.798 56.4309 164.933 56.802 165.206 57.0515C165.479 57.2985 165.762 57.4705 166.059 57.5713C166.157 57.5713 166.269 57.5836 166.393 57.6082C166.517 57.6303 166.628 57.6426 166.729 57.6426C167.321 57.6426 167.792 57.4853 168.138 57.1621C168.485 56.8401 168.681 56.5059 168.732 56.1593C168.732 56.1102 168.732 56.0733 168.732 56.0487C168.732 56.0242 168.732 55.9861 168.732 55.9369V43.91C168.732 42.7242 168.508 41.8701 168.065 41.3491C167.62 40.8293 167.123 40.3992 166.578 40.0502C166.53 40.0502 166.481 40.0391 166.43 40.0145C166.38 39.9899 166.332 39.9518 166.283 39.9027C166.183 39.8031 166.059 39.7049 165.91 39.6041C165.762 39.5058 165.614 39.4062 165.464 39.3079L156.855 32.2555C155.864 31.4149 155.098 30.685 154.553 30.0656C154.009 29.4475 153.639 28.8663 153.441 28.3206C153.193 27.7763 153.058 27.2208 153.031 26.6518C153.007 26.0841 152.995 25.4255 152.995 24.6844C152.995 24.5861 152.995 24.4743 152.995 24.349C152.995 24.2261 152.995 24.1155 152.995 24.0147V10.6521C152.995 10.5537 152.995 10.4444 152.995 10.319C152.995 10.1949 152.995 10.0843 152.995 9.98478C152.995 9.44041 152.995 8.85913 152.995 8.24225C152.995 7.62169 153.043 6.99128 153.143 6.34735C153.391 4.76458 154.108 3.31697 155.295 2.00576C156.483 0.693348 158.661 0.0358887 161.828 0.0358887H171.701C175.263 0.0358887 177.677 0.730218 178.939 2.11761C180.202 3.50129 180.957 5.01156 181.204 6.64472C181.303 7.23826 181.352 7.81954 181.352 8.38849C181.352 8.95745 181.352 9.51412 181.352 10.0597C181.352 10.1101 181.352 10.1839 181.352 10.281C181.352 10.3805 181.352 10.4788 181.352 10.5808V20.3036H168.879V8.57405C168.879 8.13043 168.694 7.73227 168.323 7.38818C167.953 7.04041 167.494 6.86714 166.951 6.86714C166.356 6.86714 165.874 7.02812 165.502 7.34887C165.13 7.67205 164.921 8.00509 164.873 8.35162C164.873 8.39955 164.873 8.43886 164.873 8.46223C164.873 8.48678 164.873 8.52736 164.873 8.57405V18.9678C164.873 20.1045 164.984 20.972 165.206 21.5656C165.427 22.1603 165.762 22.706 166.208 23.1987C166.406 23.3966 166.628 23.6067 166.876 23.8304C167.123 24.0528 167.396 24.2875 167.692 24.5358L176.603 31.8843C176.801 32.0343 176.998 32.1805 177.194 32.3304C177.392 32.4779 177.591 32.6266 177.789 32.7753C178.73 33.5679 179.535 34.4343 180.202 35.3731C180.869 36.3144 181.204 37.7497 181.204 39.679V54.23C181.204 58.4377 180.388 61.1448 178.753 62.359C177.12 63.5706 175.315 64.2256 173.335 64.3251C172.939 64.3743 172.543 64.3989 172.147 64.3989C171.75 64.3989 171.354 64.3989 170.959 64.3989L161.606 64.4751C158.588 64.4235 156.432 63.7685 155.147 62.5064C153.861 61.2444 153.043 59.8472 152.698 58.3111C152.549 57.5713 152.451 56.8401 152.4 56.1224C152.351 55.406 152.327 54.7498 152.327 54.155V42.2781ZM0.365234 81.861C0.666311 81.8954 1.13943 81.9421 1.61377 81.9421C2.70008 81.9421 3.47427 81.6988 3.99406 81.1913C4.6761 80.5891 5.08038 79.4672 5.08038 77.8955C5.08038 76.3827 4.73508 75.3542 4.06413 74.752C3.56764 74.29 2.88563 74.059 1.90255 74.059C1.30163 74.059 0.7474 74.1155 0.365234 74.2089V81.861ZM1.87798 75.3075C1.97136 75.2718 2.07706 75.2718 2.18029 75.2718C3.0933 75.2718 3.50866 76.2427 3.50866 77.8402C3.50866 79.9882 2.87459 80.7059 2.14465 80.7059C2.066 80.7059 1.94801 80.7059 1.87798 80.6825V75.3075ZM6.04015 74.0934V81.8844H7.55532V74.0934H6.04015ZM13.2302 77.5145H11.1375V78.752H11.8318V80.6359C11.774 80.658 11.6708 80.6715 11.5319 80.6715C10.8253 80.6715 10.0991 80.0005 10.0991 78.1277C10.0991 76.0939 10.9175 75.3898 11.9485 75.3898C12.3295 75.3898 12.6183 75.4451 12.837 75.5619L13.1036 74.2556C12.8603 74.1401 12.4216 74.0233 11.8318 74.0233C10.1789 74.0233 8.56055 75.2018 8.52611 78.0356C8.50153 79.3762 8.86039 80.5314 9.53134 81.179C10.0511 81.6988 10.7221 81.9532 11.6118 81.9532C12.1783 81.9532 12.8959 81.8168 13.2302 81.6767V77.5145ZM14.3645 74.0934V81.8844H15.8772V74.0934H14.3645ZM18.0744 81.8844H19.5871V75.493H20.9745V74.0934H16.6993V75.493H18.0744V81.8844ZM24.0147 80.105L24.3502 81.8844H25.8187L24.3023 74.0934H22.4885L20.8012 81.8844H22.2697L22.6163 80.105H24.0147ZM22.7662 78.9253L23.0562 77.3068C23.1373 76.8571 23.2516 76.046 23.3339 75.5275H23.3683C23.4384 76.046 23.5404 76.8214 23.6227 77.2958L23.8759 78.9253H22.7662ZM26.6728 81.8844H30.1873V80.6014H28.1892V74.0934H26.6728V81.8844ZM37.805 81.8844H39.158L38.6824 74.0934H37.0874L36.4754 76.9136C36.2665 77.8955 36.0945 78.7741 35.9777 79.6417H35.9556C35.8167 78.7631 35.6201 77.8955 35.4001 76.9136L34.7759 74.0934H33.1796L32.6143 81.8844H33.9206L34.0472 79.1784C34.0951 78.4042 34.1393 77.4224 34.1639 76.5793H34.1983C34.3138 77.4224 34.5215 78.3932 34.6714 79.0174L35.3203 81.7578H36.3931L37.0653 78.9707C37.2152 78.371 37.4228 77.4101 37.5629 76.5793H37.5961C37.574 77.4101 37.6305 78.4153 37.6662 79.1563L37.805 81.8844ZM42.4514 74.0012C40.7297 74.0012 39.8843 75.8384 39.8843 77.9655C39.8843 80.105 40.5773 81.9765 42.3481 81.9765C43.8264 81.9765 44.8661 80.7858 44.8661 77.85C44.8661 76.0694 44.3352 74.0012 42.4514 74.0012ZM42.3924 75.3198C43.0756 75.3198 43.2833 76.5548 43.2833 77.9188C43.2833 79.5028 43.0412 80.658 42.4046 80.658C41.7927 80.658 41.456 79.7572 41.456 77.9889C41.456 76.3127 41.7927 75.3198 42.3924 75.3198ZM47.1567 81.8844V80.1271C47.1567 78.5677 47.0977 77.3646 47.0633 76.5793H47.0866C47.2587 77.2847 47.6187 78.2666 47.8719 78.9253L49.0614 81.8844H50.45V74.0934H49.1204V75.8163C49.1204 77.2503 49.2248 78.6033 49.2715 79.423H49.247C49.0282 78.752 48.6461 77.7468 48.4163 77.1459L47.2132 74.0934H45.8258V81.8844H47.1567ZM51.7895 74.0934V81.8844H53.3059V74.0934H51.7895ZM55.4994 81.8844H57.0159V75.493H58.4008V74.0934H54.1243V75.493H55.4994V81.8844ZM61.2358 74.0012C59.5117 74.0012 58.6674 75.8384 58.6674 77.9655C58.6674 80.105 59.3617 81.9765 61.1301 81.9765C62.6109 81.9765 63.6505 80.7858 63.6505 77.85C63.6505 76.0694 63.1184 74.0012 61.2358 74.0012ZM61.1768 75.3198C61.8576 75.3198 62.0665 76.5548 62.0665 77.9188C62.0665 79.5028 61.8232 80.658 61.1878 80.658C60.5759 80.658 60.2404 79.7572 60.2404 77.9889C60.2404 76.3127 60.5759 75.3198 61.1768 75.3198ZM64.609 81.8844H66.1242V78.7741H66.3441C66.8517 78.7741 67.0938 79.0518 67.2326 80.0226C67.3494 80.8792 67.5226 81.6644 67.6148 81.8844H69.1988C69.06 81.5944 68.8523 80.6359 68.7011 79.7683C68.55 78.9363 68.2845 78.4398 67.7524 78.2322V78.2076C68.55 77.8402 68.9567 77.0869 68.9567 76.2537C68.9567 75.584 68.8166 75.0642 68.3423 74.6378C67.8348 74.1745 67.0938 74.059 66.2631 74.059C65.6842 74.059 65.0833 74.1155 64.609 74.2089V81.8844ZM66.1242 75.2854C66.204 75.2497 66.3552 75.2374 66.4818 75.2374C67.1638 75.2608 67.4305 75.7339 67.4305 76.3938C67.4305 77.0758 67.0483 77.6067 66.3884 77.6067H66.1242V75.2854ZM70.043 74.0934V81.8844H71.5558V74.0934H70.043ZM74.2384 81.8844V80.1271C74.2384 78.5677 74.1794 77.3646 74.145 76.5793H74.1684C74.3428 77.2847 74.6992 78.2666 74.9536 78.9253L76.1443 81.8844H77.533V74.0934H76.2033V75.8163C76.2033 77.2503 76.3065 78.6033 76.352 79.423H76.3299C76.1099 78.752 75.729 77.7468 75.498 77.1459L74.2949 74.0934H72.9087V81.8844H74.2384ZM83.1956 77.5145H81.1028V78.752H81.7971V80.6359C81.7406 80.658 81.6362 80.6715 81.4973 80.6715C80.7907 80.6715 80.0644 80.0005 80.0644 78.1277C80.0644 76.0939 80.8841 75.3898 81.9139 75.3898C82.2936 75.3898 82.5836 75.4451 82.8036 75.5619L83.069 74.2556C82.8269 74.1401 82.3858 74.0233 81.7971 74.0233C80.1443 74.0233 78.5271 75.2018 78.4927 78.0356C78.4681 79.3762 78.827 80.5314 79.4967 81.179C80.0165 81.6988 80.6875 81.9532 81.5784 81.9532C82.1437 81.9532 82.8613 81.8168 83.1956 81.6767V77.5145ZM91.5764 81.8844C91.1254 81.3166 90.7322 80.8091 90.4778 80.4859C90.9989 79.8617 91.3564 78.7975 91.4597 77.7357H90.1768C90.1546 78.3256 90.0969 79.0518 89.8314 79.5606C89.5316 79.1784 89.0216 78.4153 88.6861 77.9078V77.8611C89.8093 77.0869 90.028 76.4516 90.028 75.7462C90.028 74.6943 89.3104 74.0012 88.3163 74.0012C87.1034 74.0012 86.3636 74.8799 86.3636 75.9428C86.3636 76.4872 86.5368 77.0758 86.9399 77.6313V77.6534C86.1657 78.1511 85.7147 78.8564 85.7147 79.7928C85.7147 81.0057 86.5135 81.9765 87.8665 81.9765C88.5239 81.9765 89.1371 81.7467 89.5537 81.3756C89.7048 81.5944 89.8093 81.7222 89.9236 81.8844H91.5764ZM88.143 80.8558C87.5076 80.8558 87.1034 80.2758 87.1034 79.6073C87.1034 79.1219 87.3221 78.752 87.5421 78.5333C87.993 79.1784 88.546 79.9772 88.9528 80.4859C88.7562 80.7169 88.5018 80.8558 88.143 80.8558ZM88.2585 75.0076C88.664 75.0076 88.7562 75.4562 88.7562 75.8163C88.7562 76.2672 88.5706 76.6605 88.0852 77.0414C87.8308 76.6605 87.7043 76.3238 87.7043 75.8863C87.7043 75.4009 87.9009 75.0076 88.2585 75.0076ZM99.0319 81.8844H100.384L99.9106 74.0934H98.3155L97.7035 76.9136C97.4946 77.8955 97.3213 78.7741 97.2046 79.6417H97.1825C97.0448 78.7631 96.847 77.8955 96.627 76.9136L96.0028 74.0934H94.4077L93.8424 81.8844H95.1475L95.2753 79.1784C95.3208 78.4042 95.3687 77.4224 95.3908 76.5793H95.4252C95.5407 77.4224 95.7496 78.3932 95.8995 79.0174L96.5447 81.7578H97.6212L98.2909 78.9707C98.4421 78.371 98.651 77.4101 98.7899 76.5793H98.8243C98.8009 77.4101 98.8587 78.4153 98.8943 79.1563L99.0319 81.8844ZM104.13 80.105L104.465 81.8844H105.932L104.418 74.0934H102.604L100.917 81.8844H102.386L102.73 80.105H104.13ZM102.882 78.9253L103.171 77.3068C103.249 76.8571 103.367 76.046 103.447 75.5275H103.482C103.55 76.046 103.656 76.8214 103.735 77.2958L103.99 78.9253H102.882ZM108.117 81.8844V80.1271C108.117 78.5677 108.059 77.3646 108.024 76.5793H108.048C108.221 77.2847 108.579 78.2666 108.833 78.9253L110.024 81.8844H111.412V74.0934H110.082V75.8163C110.082 77.2503 110.186 78.6033 110.232 79.423H110.21C109.988 78.752 109.606 77.7468 109.376 77.1459L108.175 74.0934H106.789V81.8844H108.117ZM115.388 80.105L115.722 81.8844H117.19L115.677 74.0934H113.861L112.175 81.8844H113.642L113.99 80.105H115.388ZM114.138 78.9253L114.427 77.3068C114.509 76.8571 114.625 76.046 114.705 75.5275H114.739C114.809 76.046 114.914 76.8214 114.995 77.2958L115.248 78.9253H114.138ZM122.183 77.5145H120.092V78.752H120.785V80.6359C120.729 80.658 120.624 80.6715 120.485 80.6715C119.78 80.6715 119.053 80.0005 119.053 78.1277C119.053 76.0939 119.872 75.3898 120.902 75.3898C121.283 75.3898 121.572 75.4451 121.792 75.5619L122.057 74.2556C121.815 74.1401 121.374 74.0233 120.785 74.0233C119.132 74.0233 117.515 75.2018 117.48 78.0356C117.456 79.3762 117.815 80.5314 118.486 81.179C119.005 81.6988 119.677 81.9532 120.565 81.9532C121.132 81.9532 121.849 81.8168 122.183 81.6767V77.5145ZM126.611 77.2024H124.831V75.4119H126.703V74.0934H123.317V81.8844H126.842V80.567H124.831V78.4632H126.611V77.2024ZM132.773 81.8844H134.125L133.65 74.0934H132.055L131.442 76.9136C131.236 77.8955 131.062 78.7741 130.944 79.6417H130.923C130.785 78.7631 130.588 77.8955 130.369 76.9136L129.744 74.0934H128.149L127.582 81.8844H128.887L129.016 79.1784C129.06 78.4042 129.108 77.4224 129.13 76.5793H129.165C129.283 77.4224 129.491 78.3932 129.639 79.0174L130.287 81.7578H131.362L132.032 78.9707C132.183 78.371 132.391 77.4101 132.53 76.5793H132.564C132.541 77.4101 132.6 78.4153 132.634 79.1563L132.773 81.8844ZM138.528 77.2024H136.748V75.4119H138.621V74.0934H135.233V81.8844H138.76V80.567H136.748V78.4632H138.528V77.2024ZM141.117 81.8844V80.1271C141.117 78.5677 141.06 77.3646 141.026 76.5793H141.048C141.221 77.2847 141.581 78.2666 141.834 78.9253L143.024 81.8844H144.413V74.0934H143.083V75.8163C143.083 77.2503 143.187 78.6033 143.233 79.423H143.208C142.99 78.752 142.609 77.7468 142.378 77.1459L141.175 74.0934H139.787V81.8844H141.117ZM146.596 81.8844H148.112V75.493H149.498V74.0934H145.221V75.493H146.596V81.8844ZM151.74 81.6423C151.995 81.7922 152.607 81.9532 153.231 81.9532C154.757 81.9532 155.808 81.018 155.808 79.5962C155.808 78.7741 155.428 77.9889 154.398 77.3646C153.554 76.8571 153.324 76.6138 153.324 76.1505C153.324 75.7339 153.635 75.3419 154.283 75.3419C154.722 75.3419 155.057 75.4685 155.277 75.6086L155.52 74.301C155.288 74.1622 154.803 74.0233 154.295 74.0233C152.664 74.0233 151.833 75.0642 151.833 76.3127C151.833 77.0181 152.238 77.8402 153.301 78.4853C153.96 78.9118 154.306 79.1895 154.306 79.7572C154.306 80.2647 153.96 80.6359 153.243 80.6359C152.803 80.6359 152.271 80.5093 151.96 80.3348L151.74 81.6423ZM159.068 81.8844V78.8441L160.813 74.0934H159.241L158.779 75.9207C158.642 76.4762 158.513 77.0414 158.42 77.6067H158.398C158.283 77.0303 158.132 76.4516 157.994 75.9551L157.461 74.0934H155.844L157.554 78.9019V81.8844H159.068ZM160.906 81.6423C161.16 81.7922 161.774 81.9532 162.398 81.9532C163.923 81.9532 164.974 81.018 164.974 79.5962C164.974 78.7741 164.594 77.9889 163.564 77.3646C162.72 76.8571 162.489 76.6138 162.489 76.1505C162.489 75.7339 162.801 75.3419 163.45 75.3419C163.888 75.3419 164.224 75.4685 164.443 75.6086L164.686 74.301C164.455 74.1622 163.97 74.0233 163.461 74.0233C161.831 74.0233 161 75.0642 161 76.3127C161 77.0181 161.403 77.8402 162.467 78.4853C163.125 78.9118 163.471 79.1895 163.471 79.7572C163.471 80.2647 163.125 80.6359 162.408 80.6359C161.969 80.6359 161.437 80.5093 161.125 80.3348L160.906 81.6423ZM166.697 81.8844H168.212V75.493H169.599V74.0934H165.322V75.493H166.697V81.8844ZM173.69 77.2024H171.911V75.4119H173.784V74.0934H170.397V81.8844H173.921V80.567H171.911V78.4632H173.69V77.2024ZM179.851 81.8844H181.204L180.729 74.0934H179.135L178.521 76.9136C178.313 77.8955 178.139 78.7741 178.025 79.6417H178.001C177.864 78.7631 177.667 77.8955 177.446 76.9136L176.823 74.0934H175.228L174.662 81.8844H175.967L176.095 79.1784C176.141 78.4042 176.186 77.4224 176.211 76.5793H176.245C176.359 77.4224 176.567 78.3932 176.719 79.0174L177.366 81.7578H178.441L179.112 78.9707C179.261 78.371 179.47 77.4101 179.609 76.5793H179.643C179.621 77.4101 179.677 78.4153 179.713 79.1563L179.851 81.8844Z" fill="#808080"/>
</svg>
