<svg width="29" height="26" viewBox="0 0 29 26" fill="none" xmlns="http://www.w3.org/2000/svg">
<g id="Main_Icon - &#208;&#155;&#208;&#176;&#208;&#188;&#208;&#191;&#208;&#190;&#208;&#178;&#208;&#176;&#209;&#143; &#226;&#128;&#148; &#208;&#159;&#208;&#181;&#209;&#128;&#209;&#129;&#208;&#190;&#208;&#189;&#208;&#176;&#208;&#187;">
<path id="1-2" d="M11.1755 21.1776C9.94571 21.3336 8.80893 21.3383 8.26077 21.3383C7.01961 21.3383 2.75696 21.3141 1.23675 19.5638C0.766225 19.0209 0.981132 17.1876 2.02466 16.2454C3.04713 15.322 4.68616 15.0498 5.65584 14.2906C6.87144 13.339 6.33702 12.6509 6.77298 12.4894C7.26552 12.8455 7.79238 12.9922 8.26077 12.9922C8.72916 12.9922 9.25697 12.8455 9.74855 12.4894C10.1855 12.6509 9.6508 13.339 10.8666 14.2906C11.6342 14.8915 12.8205 15.1871 13.7887 15.7426M17.5079 12.3874C16.9846 12.5817 17.6261 13.4064 16.1683 14.5477C15.0046 15.4585 13.0391 15.7841 11.8131 16.8918C10.562 18.0214 10.3043 20.2205 10.8688 20.8708C12.6919 22.9701 17.8033 23 19.2921 23C20.7813 23 25.8927 22.9701 27.7158 20.8708C28.2805 20.2205 28.0226 18.0214 26.7715 16.8918C25.5454 15.7841 23.5803 15.4585 22.4165 14.5477C20.9588 13.4064 21.5999 12.5817 21.0766 12.3874C20.4859 12.8141 19.8542 12.9905 19.2921 12.9905C18.7304 12.9905 18.0989 12.8141 17.5079 12.3874ZM19.2921 3C17.5221 3 15.0557 4.06373 15.4382 7.91164C15.8209 11.7596 17.804 12.9999 19.2921 12.9999C20.7798 12.9999 22.763 11.7596 23.1457 7.91164C23.5284 4.06373 21.0617 3 19.2921 3ZM8.26006 4.66142C6.78435 4.66142 4.72734 5.54807 5.04686 8.75655C5.36567 11.966 7.01961 12.9999 8.26006 12.9999C9.50051 12.9999 11.1544 11.966 11.474 8.75655C11.7928 5.54807 9.73577 4.66142 8.26006 4.66142Z" stroke="#808080" stroke-width="1.65" stroke-linecap="round" stroke-linejoin="round"/>
</g>
</svg>
