<svg width="26" height="22" viewBox="0 0 26 22" fill="none" xmlns="http://www.w3.org/2000/svg">
<path id="Vector" fill-rule="evenodd" clip-rule="evenodd" d="M9.0405 14.2468C8.35743 13.7284 7.81141 12.9034 7.56383 12.2136C7.53435 12.1869 7.49531 12.154 7.46362 12.1261C7.08193 11.7971 6.36974 11.1851 6.36974 9.81204C6.36974 9.16419 6.49648 8.70362 6.76874 8.36126C6.80522 8.31498 6.85313 8.26075 6.91208 8.20616V6.83094C6.91208 5.1712 8.129 2.96989 10.7736 2.16371C10.3119 1.12614 9.16649 0 6.89808 0C3.76017 0 2.76578 2.15575 2.76578 3.24899C2.76578 3.83791 2.76578 4.84221 2.76578 4.9156C2.76578 4.98935 2.31925 4.71496 2.31925 5.70589C2.31925 6.83527 3.09554 6.91409 3.23334 7.34032C3.47797 8.0977 4.23616 8.92162 4.73796 8.92162C4.73796 8.92162 4.77703 9.07779 4.77703 9.36665C4.77703 9.60055 4.77002 9.59585 4.60313 9.59585C1.87564 9.59585 0 12.424 0 13.3275C0 14.4825 0 15.7515 0 15.7515H5.78466C6.73815 15.0494 7.85784 14.4814 9.0405 14.2468ZM21.3968 9.59585C21.2288 9.59585 21.2233 9.60055 21.2233 9.36665C21.2233 9.07779 21.2616 8.92162 21.2616 8.92162C21.7638 8.92162 22.5228 8.0977 22.7659 7.34032C22.9041 6.91409 23.68 6.83527 23.68 5.70589C23.68 4.71496 23.2342 4.98935 23.2342 4.9156C23.2342 4.84221 23.2342 3.83791 23.2342 3.24899C23.2342 2.15575 22.2398 0 19.1015 0C16.8269 0 15.6825 1.133 15.2231 2.17274C17.8507 2.98436 19.061 5.17662 19.061 6.83094V8.20616C19.3602 8.48634 19.6026 8.97259 19.6026 9.81204C19.6026 11.1851 18.8908 11.7986 18.508 12.1272C18.4763 12.154 18.4369 12.1869 18.4082 12.2136C18.1606 12.9034 17.6153 13.7284 16.9326 14.2468C18.1152 14.4814 19.2342 15.0505 20.1877 15.7515H26C26 15.7515 26 14.4825 26 13.3275C26 12.424 24.1247 9.59585 21.3968 9.59585ZM15.7709 15.1712C15.5679 15.1712 15.5602 14.5368 15.5602 14.2533C15.5602 13.9045 15.607 13.7129 15.607 13.7129C16.2156 13.7129 17.1371 12.7154 17.4322 11.795C17.5998 11.278 18.5419 11.184 18.5419 9.81204C18.5419 8.61034 18.0003 8.94366 18.0003 8.85401C18.0003 8.76435 18.0003 7.54639 18.0003 6.83094C18.0003 5.5056 16.7933 2.88999 12.9867 2.88999C9.17902 2.88999 7.97313 5.5056 7.97313 6.83094C7.97313 7.54639 7.97313 8.76435 7.97313 8.85401C7.97313 8.94366 7.43118 8.61034 7.43118 9.81204C7.43118 11.184 8.37327 11.278 8.5398 11.795C8.83602 12.7154 9.7567 13.7129 10.3657 13.7129C10.3657 13.7129 10.4125 13.9045 10.4125 14.2533C10.4125 14.5368 10.4044 15.1712 10.2014 15.1712C6.89291 15.1712 3.9665 18.6028 3.9665 19.6989C3.9665 21.0998 3.9665 22 3.9665 22H12.9867H22.0062C22.0062 22 22.0062 21.0998 22.0062 19.6989C22.0062 18.6028 19.0802 15.1712 15.7709 15.1712Z" fill="#CCCCCC"/>
</svg>
