<svg width="24" height="21" viewBox="0 0 24 21" fill="none" xmlns="http://www.w3.org/2000/svg">
<path id="Vector" fill-rule="evenodd" clip-rule="evenodd" d="M14.9336 12.9094V16.1541H3.73352V3.23097H10.3956C11.745 1.82596 13.3076 1.07699 14.9336 1.07699C16.3939 1.07699 17.6357 1.57872 18.667 2.38332V0.538681C18.667 0.243053 18.4274 0 18.1334 0H0.533223C0.240404 0 0 0.243053 0 0.538681V20.4617C0 20.7581 0.240404 21 0.533223 21H18.1334C18.4274 21 18.667 20.7581 18.667 20.4617V15.3023L14.9336 12.9094ZM20.6201 8.70698C20.019 6.31984 18.2866 2.69229 14.9323 2.69229C10.6823 2.69229 7.93219 9.82702 8.26576 13.4618C8.26576 13.4618 10.7543 6.46156 14.9323 6.46156C16.4719 6.46156 17.2451 8.59345 17.5127 9.53673L14.0815 10.4518L20.9919 14.8782L24 7.80561L20.6201 8.70698Z" fill="#4D4D4D"/>
</svg>
